<svg id="Layer_1" data-name="Layer 1" xmlns="http://www.w3.org/2000/svg" viewBox="0 0 1219.76 120"><defs><style>.cls-1{fill:#f2a900;}</style></defs><title>miscOrange</title><rect class="cls-1" x="1154.62" y="62.53" width="52.74" height="52.92"/><path class="cls-1" d="M884.39,115.4c-45.5,0-72.38-8.43-119.13-28.59-42.91-18.51-62-24.27-98.19-24.27s-55.29,5.76-98.2,24.27C522.12,107,495.24,115.4,449.74,115.4S377.36,107,330.61,86.81C287.7,68.3,268.56,62.54,232.42,62.54s-55.29,5.76-98.2,24.27C87.47,107,60.59,115.4,15.09,115.4V62.53c36.15,0,55.29-5.76,98.2-24.27C160,18.1,186.92,9.67,232.42,9.67S304.8,18.1,351.55,38.26c42.91,18.51,62.05,24.27,98.19,24.27s55.29-5.76,98.2-24.27C594.68,18.1,621.57,9.67,667.07,9.67s72.38,8.43,119.12,28.59c42.91,18.51,62.06,24.27,98.2,24.27s55.28-5.76,98.19-24.27c46.75-20.16,73.64-28.59,119.13-28.59V62.54c-36.14,0-55.28,5.76-98.19,24.27C956.77,107,929.89,115.4,884.39,115.4"/></svg>