<svg id="Layer_1" data-name="Layer 1" xmlns="http://www.w3.org/2000/svg" viewBox="0 0 832.94 112.94"><defs><style>.cls-1{fill:#b3b3b3;}</style></defs><title>miscgrey</title><path class="cls-1" d="M759.65,34.25C714,14.54,687.67,6.3,643.2,6.3s-70.76,8.24-116.46,28C484.8,52.34,466.09,58,430.76,58s-54.05-5.63-96-23.72c-45.7-19.71-72-27.95-116.45-27.95s-70.76,8.24-116.46,28C59.92,52.34,41.21,58,5.87,58v51.68c44.48,0,70.76-8.24,116.46-27.95C164.27,63.61,183,58,218.32,58s54,5.63,96,23.72c45.7,19.71,72,28,116.46,28s70.75-8.24,116.45-27.95C589.15,63.61,607.86,58,643.2,58s54,5.63,96,23.72c36,15.53,60,23.94,90.27,26.8V56.55C808.27,53.93,790.07,47.37,759.65,34.25Z"/></svg>