<svg id="Layer_1" data-name="Layer 1" xmlns="http://www.w3.org/2000/svg" viewBox="0 0 1176 122.82"><defs><style>.cls-1{fill:#f2a900;}.cls-2{fill:#ccc;}</style></defs><title>miscOrangeGrey</title><path class="cls-1" d="M853.48,117.3c-44.47,0-70.75-8.24-116.45-27.95-41.94-18.09-60.66-23.72-96-23.72s-54,5.63-96,23.72c-45.7,19.71-72,28-116.46,28s-70.75-8.24-116.45-27.95c-41.94-18.09-60.66-23.72-96-23.72s-54,5.63-96,23.72c-45.7,19.71-72,28-116.46,28V65.62c35.33,0,54.05-5.64,96-23.72C145.41,22.19,171.69,14,216.16,14s70.76,8.24,116.46,28c41.94,18.08,60.65,23.72,96,23.72s54-5.64,96-23.72C570.29,22.19,596.57,14,641,14s70.76,8.24,116.46,28c41.94,18.08,60.65,23.72,96,23.72s54-5.64,96-23.72c45.7-19.71,72-27.95,116.45-27.95V65.63c-35.33,0-54,5.63-96,23.72-45.69,19.71-72,28-116.45,28M1118.77,12.76V65.62h52.93V12.76Z"/><rect class="cls-2" x="1118.48" y="12.47" width="53.24" height="53.6"/></svg>