<svg id="Layer_1" data-name="Layer 1" xmlns="http://www.w3.org/2000/svg" viewBox="0 0 163.06 1032.71"><defs><style>.cls-1{fill:#e6e6e6;}.cls-2{fill:none;stroke:#f2a900;stroke-width:4px;}.cls-2,.cls-7{stroke-miterlimit:10;}.cls-3,.cls-7{fill:#6b6d72;}.cls-4{fill:#fff;}.cls-5{fill:#f2a900;}.cls-6{fill:#5f6369;}.cls-7{stroke:#f9ae3b;stroke-width:0.75px;}</style></defs><title>icons</title><circle class="cls-1" cx="80.91" cy="178.65" r="7.99"/><circle class="cls-1" cx="80.91" cy="209.59" r="7.99"/><circle class="cls-1" cx="80.91" cy="240.54" r="7.99"/><circle class="cls-1" cx="80.91" cy="271.48" r="7.99"/><circle class="cls-1" cx="80.91" cy="470.4" r="7.99"/><circle class="cls-1" cx="80.91" cy="501.34" r="7.99"/><circle class="cls-1" cx="80.91" cy="532.29" r="7.99"/><circle class="cls-1" cx="80.91" cy="563.23" r="7.99"/><circle class="cls-1" cx="80.91" cy="762.15" r="7.99"/><circle class="cls-1" cx="80.91" cy="793.09" r="7.99"/><circle class="cls-1" cx="80.91" cy="824.04" r="7.99"/><circle class="cls-1" cx="80.91" cy="854.98" r="7.99"/><circle class="cls-2" cx="80.96" cy="79.28" r="74"/><path class="cls-3" d="M113,67.28a32,32,0,0,0-64,0,12,12,0,0,0-12,12v8a12,12,0,0,0,12,12h4a4,4,0,0,0,4-4v-24a4,4,0,0,0-4-4,28,28,0,0,1,56,0,4,4,0,0,0-4,4v24a4,4,0,0,0,1.61,3.2,28.12,28.12,0,0,1-10.86,12.56A8,8,0,0,0,89,107.3H81a8,8,0,1,0,0,16h8a8,8,0,0,0,8-8c0-.11,0-.21,0-.32A32.16,32.16,0,0,0,110.58,99.3H113a12,12,0,0,0,12-12v-8A12,12,0,0,0,113,67.28Z"/><path class="cls-4" d="M52.94,95.29h-4a8,8,0,0,1-8-8v-8a8,8,0,0,1,8-8h4Z"/><path class="cls-5" d="M89,119.31H81a4,4,0,0,1,0-8h8a4,4,0,1,1,0,8Z"/><path class="cls-4" d="M121,87.29a8,8,0,0,1-8,8h-4v-24h4a8,8,0,0,1,8,8Z"/><circle class="cls-2" cx="80.96" cy="370.94" r="74"/><path class="cls-5" d="M81.78,332.85l-16.73.22s-7.92,2.94-9,3.4-7.23,5.2-7.23,5.2-5.21,9.72-5,10.63-.9,22.16-.9,22.83,1.58,17.42,1.58,17.42l3.62,7.23s5.2,5.43,6.56,6.11,19,3.39,19.67,3.39,23.06-1.36,24.65-1.13,11.08-4.75,11.08-4.75l7.46-9s1.36-8.82,1.58-11.08,0-27.37.23-28.27-3.84-12.21-5-13.12S105.3,334,103,334,81.78,332.85,81.78,332.85Z"/><g id="_888-checkmark-toolbar_2x.png" data-name="888-checkmark-toolbar@2x.png"><path class="cls-6" d="M86.67,330.94H75.25c-25.72,0-34.29,8.57-34.29,34.29v11.43c0,25.71,8.57,34.28,34.29,34.28H86.67c25.72,0,34.29-8.57,34.29-34.28V365.23C121,339.51,112.39,330.94,86.67,330.94Zm30.65,45.72c0,23.77-6.87,30.64-30.65,30.64H75.25c-23.78,0-30.65-6.87-30.65-30.64V365.23c0-23.78,6.87-30.65,30.65-30.65H86.67c23.78,0,30.65,6.87,30.65,30.65Zm-20-18.45a1.81,1.81,0,0,0-1.28.54L75.5,379.28l-9.62-9.63a1.84,1.84,0,0,0-1.28-.53,1.82,1.82,0,0,0-1.82,1.82,1.78,1.78,0,0,0,.53,1.28l10.91,10.91a1.8,1.8,0,0,0,2.57,0l21.82-21.81a1.82,1.82,0,0,0-1.29-3.11Z"/></g><circle class="cls-2" cx="80.96" cy="954.94" r="74"/><ellipse class="cls-5" cx="80.82" cy="958.64" rx="36.79" ry="38.11"/><g id="_716-stopwatch-1-toolbar_2x.png" data-name="716-stopwatch-1-toolbar@2x.png"><path class="cls-3" d="M111.31,927.42s2.83-2.84,4.25-1.42a2,2,0,1,0,2.83-2.83l-5.66-5.66a2,2,0,1,0-2.83,2.83s1.41,1.42-1.42,4.24ZM83,951.22V932.93a2,2,0,1,0-4,0v18.29a8,8,0,0,0,0,15.44V971a2,2,0,0,0,4,0v-4.29a8,8,0,0,0,0-15.44ZM83,919v-6.11a2,2,0,0,0-4,0V919a40,40,0,1,0,4,0ZM81,995a36,36,0,1,1,36-36A36,36,0,0,1,81,995Z"/></g><circle class="cls-2" cx="80.96" cy="662.94" r="74"/><path class="cls-7" d="M112.74,626.27H105.4v-7.33h-4.89v7.33H61.4v-7.33H56.51v7.33H49.18A12.24,12.24,0,0,0,37,638.5v56.22a12.23,12.23,0,0,0,12.22,12.22h63.56A12.23,12.23,0,0,0,125,694.72V638.49A12.24,12.24,0,0,0,112.74,626.27Zm7.33,68.44a7.34,7.34,0,0,1-7.33,7.33H49.18a7.34,7.34,0,0,1-7.33-7.33v-44h78.22Zm0-48.88H41.85v-7.34a7.34,7.34,0,0,1,7.33-7.33h7.34v4.89H61.4v-4.89h39.11v4.89h4.89v-4.89h7.34a7.34,7.34,0,0,1,7.33,7.33Z"/></svg>