<svg id="Layer_1" data-name="Layer 1" xmlns="http://www.w3.org/2000/svg" xmlns:xlink="http://www.w3.org/1999/xlink" viewBox="0 0 731.29 87.53"><defs><style>.cls-1,.cls-3,.cls-4{fill:none;}.cls-2{fill:#1d1d1b;}.cls-3{stroke:#fd0;}.cls-3,.cls-4{stroke-miterlimit:10;stroke-width:0.24px;}.cls-4{stroke:#171614;}.cls-5{fill:#fff;}.cls-6{fill:#ef4135;}.cls-7{fill:#fd0;}.cls-8{fill:#6f6f6e;}.cls-9{clip-path:url(#clip-path);}.cls-10{fill:url(#linear-gradient);}.cls-11{fill:url(#linear-gradient-2);}.cls-12{fill:url(#linear-gradient-3);}.cls-13{fill:url(#linear-gradient-4);}.cls-14{fill:url(#linear-gradient-5);}.cls-15{fill:url(#linear-gradient-6);}.cls-16{fill:url(#linear-gradient-7);}.cls-17{fill:url(#linear-gradient-8);}</style><clipPath id="clip-path"><polygon class="cls-1" points="728.5 53.61 704.94 41.07 704.94 52.21 684.02 41.07 684.02 66.15 704.94 55.02 704.94 66.15 728.5 53.61"/></clipPath><linearGradient id="linear-gradient" x1="699.45" y1="31.18" x2="712.15" y2="53.18" gradientUnits="userSpaceOnUse"><stop offset="0.04" stop-color="#fbc457"/><stop offset="0.14" stop-color="#fed636"/><stop offset="0.2" stop-color="#ffdf26"/><stop offset="0.58" stop-color="#f7d127"/><stop offset="0.9" stop-color="#ecb000"/></linearGradient><linearGradient id="linear-gradient-2" x1="680.47" y1="33.95" x2="738.03" y2="33.95" gradientUnits="userSpaceOnUse"><stop offset="0.03" stop-color="#fdede8"/><stop offset="0.44" stop-color="#f7e7ab"/><stop offset="0.86" stop-color="#f8ecb3"/></linearGradient><linearGradient id="linear-gradient-3" x1="699.27" y1="36.35" x2="714.67" y2="63.03" gradientUnits="userSpaceOnUse"><stop offset="0.04" stop-color="#f2911a"/><stop offset="0.17" stop-color="#f5a20c"/><stop offset="0.32" stop-color="#f8b200"/><stop offset="0.72" stop-color="#f7d100"/><stop offset="1" stop-color="#eebe00"/></linearGradient><linearGradient id="linear-gradient-4" x1="693.1" y1="45.41" x2="703.24" y2="62.96" gradientUnits="userSpaceOnUse"><stop offset="0.1" stop-color="#f7d100"/><stop offset="0.9" stop-color="#f8ad00"/></linearGradient><linearGradient id="linear-gradient-5" x1="698.96" y1="44.55" x2="712.79" y2="68.52" gradientUnits="userSpaceOnUse"><stop offset="0.17" stop-color="#ffe731"/><stop offset="0.57" stop-color="#ffcd00"/><stop offset="1" stop-color="#fbdc63"/></linearGradient><linearGradient id="linear-gradient-6" x1="697.55" y1="48.85" x2="717.63" y2="83.63" gradientUnits="userSpaceOnUse"><stop offset="0.17" stop-color="#fdc800"/><stop offset="0.61" stop-color="#f6a403"/><stop offset="1" stop-color="#f5a205"/></linearGradient><linearGradient id="linear-gradient-7" x1="673.36" y1="38.05" x2="738" y2="38.05" gradientUnits="userSpaceOnUse"><stop offset="0.2" stop-color="#ffe371"/><stop offset="0.65" stop-color="#f8eeae"/><stop offset="0.96" stop-color="#f6f0da"/></linearGradient><linearGradient id="linear-gradient-8" x1="673.38" y1="42.46" x2="691.07" y2="42.46" gradientUnits="userSpaceOnUse"><stop offset="0.2" stop-color="#ffe7ac"/><stop offset="0.81" stop-color="#f7d127"/></linearGradient></defs><title>logo</title><path class="cls-2" d="M245.12,17.74h-3.39l-9,23.36h4.41l2.19-5.82h8.29l2.26,5.82h4.59Zm-4.55,14.08,1.69-4.58c.63-1.8,1-2.83,1.2-3.64h.07c.21.78.53,1.84,1.16,3.6l1.63,4.62Z"/><path class="cls-2" d="M289.9,24c-4.76,0-7.51,3.78-7.51,8.79,0,4.51,2.47,8.68,8.53,8.68a11.15,11.15,0,0,0,5.9-1.56L295.55,37a8.35,8.35,0,0,1-4.2,1.13c-2.79,0-4.62-1.66-4.73-4.24h10.69v-1c0-5.54-2.72-8.93-7.41-8.93m-3.32,7c0-2,1.17-3.78,3.25-3.78S293,29.07,293,31Z"/><path class="cls-2" d="M362.74,24c-4.76,0-7.51,3.78-7.51,8.79,0,4.51,2.47,8.68,8.54,8.68a11.12,11.12,0,0,0,5.89-1.56L368.39,37a8.35,8.35,0,0,1-4.2,1.13c-2.79,0-4.62-1.66-4.73-4.24h10.69v-1c0-5.54-2.71-8.93-7.41-8.93m-3.31,7c0-2,1.16-3.78,3.24-3.78s3.18,1.87,3.21,3.78Z"/><path class="cls-2" d="M396.36,19.3l-4.2,1.23v3.88h-3v3.28h3V37c0,2.78,1.81,4.48,4.77,4.48a9.56,9.56,0,0,0,4.87-1.31l-1.27-2.89a4.76,4.76,0,0,1-2.54.81c-1.1,0-1.63-.57-1.63-2.12V27.69h1.54a2.63,2.63,0,0,0,2.68-1.47l.83-1.65,0-.06,0-.07h-4.87v0h-.18Z"/><path class="cls-2" d="M274.92,24C271,24,268.6,26.07,268.6,29c0,5.57,7.83,4.51,7.83,7.33,0,1.27-1.23,1.77-2.92,1.77A8.57,8.57,0,0,1,269,36.76l-.18.45L268,40a12.08,12.08,0,0,0,5.77,1.42c3.6,0,6.77-1.52,6.77-5.19,0-5.82-7.83-4.8-7.83-7.45,0-1.09.95-1.51,2.36-1.51a11.33,11.33,0,0,1,4,.75l.78-3V24.8a14.6,14.6,0,0,0-4.9-.81"/><path class="cls-2" d="M305.64,24c-3.92,0-6.32,2.08-6.32,5.05,0,5.57,7.84,4.51,7.84,7.33,0,1.27-1.24,1.77-2.93,1.77a8.54,8.54,0,0,1-4.38-1.27l-.87,3.3a12.13,12.13,0,0,0,5.53,1.29c3.6,0,6.78-1.52,6.78-5.19,0-5.82-7.84-4.8-7.84-7.45,0-1.09,1-1.51,2.37-1.51a11.48,11.48,0,0,1,3.92.74l.8-3.08V24.8a14.6,14.6,0,0,0-4.9-.81"/><path class="cls-2" d="M319.58,24c-3.92,0-6.32,2.08-6.32,5.05,0,5.57,7.84,4.51,7.84,7.33,0,1.27-1.24,1.77-2.93,1.77a8.53,8.53,0,0,1-4.43-1.3l-.87,3.31a12.24,12.24,0,0,0,5.58,1.31c3.6,0,6.78-1.52,6.78-5.19,0-5.82-7.84-4.8-7.84-7.45,0-1.09.95-1.51,2.37-1.51a11.31,11.31,0,0,1,3.89.73l.83-3.17V24.8a14.6,14.6,0,0,0-4.9-.81"/><path class="cls-2" d="M261.05,24c-3.91,0-6.31,2.08-6.31,5.05,0,5.57,7.83,4.51,7.83,7.33,0,1.27-1.23,1.77-2.93,1.77a8.56,8.56,0,0,1-4.55-1.38v0L256.69,41a12.89,12.89,0,0,0,3.23.42c3.6,0,6.78-1.52,6.78-5.19,0-5.82-7.84-4.8-7.84-7.45,0-1.09,1-1.51,2.37-1.51a11.38,11.38,0,0,1,3.91.74l.82-3.11V24.8a14.71,14.71,0,0,0-4.91-.81"/><path class="cls-2" d="M327.48,23.69l-.08,0V41.1h4.2V29.32a6.7,6.7,0,0,1,4-1.66c2.15,0,2.47,1.62,2.47,3.56V41.1h4.23V30l0-.63a6.5,6.5,0,0,1,3.95-1.66c2.15,0,2.54,1.55,2.54,3.53V41.1H353V30c0-4.41-2.61-6-5.54-6a9.65,9.65,0,0,0-6,2.58A4.66,4.66,0,0,0,337,24a9.34,9.34,0,0,0-5.62,2.29h-.15a3.21,3.21,0,0,0-1.5-1.47l-2.13-1.07Z"/><path class="cls-2" d="M372.56,23.69l-.09,0V41.1h4.2V29.42a6.86,6.86,0,0,1,4.1-1.76c2.15,0,2.57,1.66,2.57,3.7V41.1h4.24v-11c0-4.76-2.72-6.07-5.36-6.07a9.33,9.33,0,0,0-5.72,2.29h-.23a3.21,3.21,0,0,0-1.5-1.47l-2.13-1.07Z"/><path class="cls-2" d="M82.41,17.48c-7.48,0-12.28,5.36-12.28,12.1S74.26,41.3,81.88,41.3a14.94,14.94,0,0,0,7.19-1.74,6.35,6.35,0,0,1-1-3.45,11,11,0,0,1-5.71,1.62c-4.77,0-7.73-3.38-7.73-8.26,0-4.55,2.71-8.43,7.87-8.43a12.54,12.54,0,0,1,6,1.52V18.61a15.5,15.5,0,0,0-6.11-1.13"/><path class="cls-2" d="M139.74,15.78h-4.2V40A11.94,11.94,0,0,0,141,41.12c5.68,0,10-3.39,10-9.25,0-5.29-3.56-8.22-8-8.22a10.55,10.55,0,0,0-3.24.5Zm1.94,21.85a6.48,6.48,0,0,1-1.94-.29V27.68a5.88,5.88,0,0,1,2.53-.54c2.76,0,4.38,2.05,4.38,5,0,3.28-1.94,5.51-5,5.51"/><path class="cls-2" d="M189,16h-4.23V24a12.68,12.68,0,0,0-2.26-.21c-5.3,0-9.14,3.64-9.14,8.93,0,5.5,4.06,8.54,9.49,8.54A15.17,15.17,0,0,0,189,40.06ZM182.76,37.8a4.76,4.76,0,0,1-5.12-5.11c0-3.43,2.16-5.4,5.08-5.4a8.37,8.37,0,0,1,2,.25v10a6.45,6.45,0,0,1-2,.28"/><path class="cls-2" d="M215.29,23.83c-4.76,0-7.51,3.78-7.51,8.79,0,4.51,2.47,8.68,8.54,8.68a11.12,11.12,0,0,0,5.89-1.56l-1.27-2.89a8.35,8.35,0,0,1-4.2,1.13c-2.79,0-4.62-1.66-4.73-4.23H222.7v-1c0-5.54-2.71-8.93-7.41-8.93m-3.31,7c0-2,1.16-3.78,3.24-3.78s3.18,1.87,3.21,3.78Z"/><path class="cls-2" d="M97.18,23.83a13,13,0,0,0-6.45,1.66l1.37,2.72A9.41,9.41,0,0,1,96.48,27c1.94,0,3.21.85,3.21,2.79v.53l-2.86.1a10.3,10.3,0,0,0-4.3,1A4.76,4.76,0,0,0,89.7,36a5.21,5.21,0,0,0,5.54,5.33,6.9,6.9,0,0,0,4.8-1.94h.35a3.61,3.61,0,0,0,1.16.9l2.2,1.1.08,0,.09,0V31.53h0V29.9c0-4-2.23-6.07-6.71-6.07M96.44,38A2.21,2.21,0,0,1,94,35.69a2,2,0,0,1,1-1.91,5.31,5.31,0,0,1,2.43-.53l2.16-.07v3.63A5.08,5.08,0,0,1,96.44,38"/><path class="cls-2" d="M107.06,23.47l-.08,0V40.87h4.2V29.09a6.65,6.65,0,0,1,4-1.66c2.16,0,2.47,1.63,2.47,3.56v9.88h4.24V29.72l0-.63a6.5,6.5,0,0,1,4-1.66c2.16,0,2.54,1.55,2.54,3.53v9.91h4.2V29.79c0-4.41-2.61-6-5.54-6a9.62,9.62,0,0,0-6,2.58,4.68,4.68,0,0,0-4.45-2.58,9.31,9.31,0,0,0-5.61,2.29h-.16a3.24,3.24,0,0,0-1.49-1.47l-2.14-1.07Z"/><path class="cls-2" d="M162.07,23.91a6.25,6.25,0,0,0-4.59,2.21L157,24.25h-3.56V40.94h4.2V29.16a4.68,4.68,0,0,1,3.63-2.06,4.18,4.18,0,0,1,2.58,1V24.23a5.31,5.31,0,0,0-1.8-.32"/><path class="cls-2" d="M168.51,16.49A2.53,2.53,0,1,0,171.12,19a2.52,2.52,0,0,0-2.61-2.54m2.11,7.76h-4.23V40.94h4.23Z"/><path class="cls-2" d="M207.63,23.19h-9.1c-4.55,0-6.81,3.07-6.81,6.14a5.84,5.84,0,0,0,2.78,5.19,4.09,4.09,0,0,0-2,3.14,2.35,2.35,0,0,0,1.1,2.08,4.49,4.49,0,0,0-3,4c0,2.9,2.86,4.91,7.76,4.91,5.79,0,8.82-2.47,8.82-5.51,0-6.24-11-3.45-11-6.45a2.29,2.29,0,0,1,.42-1.24,6.91,6.91,0,0,0,2,.28c4.06,0,6.91-2.43,6.91-6.17A5.81,5.81,0,0,0,204.41,26h.48v0a2.24,2.24,0,0,0,2-1.26l.73-1.45,0-.06Zm-9,9.39a2.9,2.9,0,0,1-2.93-3.11,2.8,2.8,0,0,1,2.9-3.1,3,3,0,0,1,3,3.14,2.81,2.81,0,0,1-3,3.07m.28,13.12c-2.78,0-4.55-1-4.55-2.68a2.81,2.81,0,0,1,1.34-2.18c2.26.88,7.45.38,7.45,2.78,0,1.24-1.69,2.08-4.24,2.08"/><path class="cls-2" d="M71.14,52.26H82.86l-1,2.68H74.27v7.35h7.57V65H74.27v7.81H83v2.67H71.14Z"/><path class="cls-2" d="M86.55,58.81h2.6l.39,2a9.1,9.1,0,0,1,5.77-2.47c2.64,0,5.06,1.55,5.06,5.91V75.44H97.28V65.31c0-2.35-.57-4.18-2.85-4.18a7.75,7.75,0,0,0-4.79,2.25V75.44H86.55Z"/><path class="cls-2" d="M102.48,79a4.65,4.65,0,0,1,3.06-4.18,2.35,2.35,0,0,1-1.16-2.08,4.31,4.31,0,0,1,1.87-3.24,5.77,5.77,0,0,1-2.68-5.06,6,6,0,0,1,6.33-6,7.62,7.62,0,0,1,3.21.63c.17.11.24.11.38,0a4.79,4.79,0,0,1,3.63-1.38,5.63,5.63,0,0,1,1,.11l-.71,2.32a5,5,0,0,0-1-.1,2.72,2.72,0,0,0-1.47.38,5.94,5.94,0,0,1,1.72,4.19c0,3.62-2.67,6-6.58,6a6.54,6.54,0,0,1-2.11-.32A2.52,2.52,0,0,0,107.2,72c0,3.2,11,.32,11,6.54,0,3.1-3,5.28-8.27,5.28C105.37,83.78,102.48,82,102.48,79Zm12.63-.14c0-2.85-5-2.29-7.81-3.2a3.54,3.54,0,0,0-2,2.81c0,1.9,2,3,4.89,3C113.42,81.46,115.11,80.3,115.11,78.82ZM113.6,64.5a3.43,3.43,0,0,0-3.52-3.62,3.32,3.32,0,0,0-3.48,3.59,3.4,3.4,0,0,0,3.52,3.66A3.33,3.33,0,0,0,113.6,64.5Z"/><path class="cls-2" d="M120.53,50.54h3.09V71.29c0,1.27.39,1.66,1.23,1.66a4,4,0,0,0,1.06-.21l.63,2.42a7.15,7.15,0,0,1-2.57.49c-2.32,0-3.44-1.26-3.44-3.48Z"/><path class="cls-2" d="M128.51,53.39a2,2,0,0,1,4,0,2,2,0,0,1-2,2A1.93,1.93,0,0,1,128.51,53.39Zm.42,5.42H132V75.44h-3.1Z"/><path class="cls-2" d="M135.69,72A8.26,8.26,0,0,0,140,73.26c1.86,0,3.37-.67,3.37-2.39,0-3.38-7.81-2.25-7.81-7.77,0-2.64,2.08-4.72,5.84-4.72a12.56,12.56,0,0,1,4.37.81v2.68a10.22,10.22,0,0,0-4.23-.95c-1.54,0-2.91.45-2.91,2,0,3.37,7.8,2.18,7.8,7.88,0,3.41-2.88,5-6.33,5a10.2,10.2,0,0,1-5.38-1.48Z"/><path class="cls-2" d="M149.33,50.54h3.1V60.81a8.77,8.77,0,0,1,5.66-2.43c2.6,0,5.07,1.55,5.07,5.91V75.44h-3.1V65.31c0-2.35-.6-4.18-2.88-4.18a7.56,7.56,0,0,0-4.75,2.25V75.44h-3.1Z"/><path class="cls-3" d="M57.25,50.53A29.57,29.57,0,0,1,56,58.28a18.88,18.88,0,0,1-3,5.84A20.54,20.54,0,0,1,46,69.81c-.17.09-1.29.66-6.69,3.35V50.53h18"/><path class="cls-3" d="M25.46,50.53V73.16c-5.4-2.69-6.52-3.26-6.68-3.35a20.47,20.47,0,0,1-7.11-5.69,19.1,19.1,0,0,1-2.95-5.84,29.57,29.57,0,0,1-1.25-7.75h18"/><path class="cls-4" d="M57.29,18.29h-18V36.74h18V18.29Z"/><path class="cls-4" d="M25.46,18.29h-18V36.74h18V18.29Z"/><path class="cls-2" d="M32.36,79.41l-.55-.29c-.81-.4-13.48-6.7-14.23-7.11C13.47,69.78,4.93,65.14,4.93,48.87V15.78H59.79V48.87c0,16.27-8.54,20.91-12.65,23.14-.75.41-13.5,6.75-14.23,7.11Z"/><path class="cls-5" d="M37.94,38.05V17H26.78V38.05H6.12V48.87h0v.35H26.78V75.29l5.58,2.78h0l5.58-2.78V49.22H58.6V38.05Z"/><rect class="cls-6" x="6.12" y="16.97" width="20.66" height="21.09"/><rect class="cls-6" x="37.94" y="16.97" width="20.66" height="21.09"/><path class="cls-6" d="M26.78,49.22H6.12C6.24,64.33,14,68.71,18.15,71c.42.23,4.83,2.43,8.63,4.32Z"/><path class="cls-6" d="M37.94,49.22V75.29c3.8-1.89,8.21-4.09,8.64-4.32,4.15-2.26,11.9-6.64,12-21.75Z"/><path class="cls-2" d="M45,43.8l.43-.51-.54-.64-.54.64.42.51c0,.25,0,2.49-1.29,3.29a3.13,3.13,0,0,0,1,0,6.47,6.47,0,0,0,.38,1.25,7.45,7.45,0,0,0,.38-1.25,3.06,3.06,0,0,0,1,0C45,46.29,45,44.05,45,43.8Z"/><path class="cls-2" d="M48.4,40l.43-.51-.54-.64-.54.64.43.51c0,.26,0,2.49-1.3,3.29a2.83,2.83,0,0,0,1,0,6.47,6.47,0,0,0,.38,1.25,6.47,6.47,0,0,0,.38-1.25,2.83,2.83,0,0,0,1,0C48.38,42.49,48.4,40.26,48.4,40Z"/><path class="cls-2" d="M51.77,43.8l.43-.51-.54-.64-.54.64.42.51c0,.25,0,2.49-1.29,3.29a3.13,3.13,0,0,0,1,0,6.47,6.47,0,0,0,.38,1.25A7.45,7.45,0,0,0,52,47.06a3.06,3.06,0,0,0,1,0C51.75,46.29,51.76,44.05,51.77,43.8Z"/><path class="cls-2" d="M55.13,40l.43-.51L55,38.85l-.54.64.43.51c0,.26,0,2.49-1.3,3.29a2.83,2.83,0,0,0,1,0A6.47,6.47,0,0,0,55,44.51a6.47,6.47,0,0,0,.38-1.25,2.83,2.83,0,0,0,1,0C55.11,42.49,55.13,40.26,55.13,40Z"/><path class="cls-2" d="M41.67,40l.43-.51-.54-.64-.54.64.43.51c0,.26,0,2.49-1.3,3.29a2.83,2.83,0,0,0,1,0,6.47,6.47,0,0,0,.38,1.25,6.47,6.47,0,0,0,.38-1.25,2.83,2.83,0,0,0,1,0C41.65,42.49,41.67,40.26,41.67,40Z"/><path class="cls-2" d="M13.18,43.8l.42-.51-.54-.64-.53.64.42.51c0,.25,0,2.49-1.29,3.29a3.13,3.13,0,0,0,1,0,6.85,6.85,0,0,0,.37,1.25,6.47,6.47,0,0,0,.38-1.25,3.13,3.13,0,0,0,1,0C13.15,46.29,13.17,44.05,13.18,43.8Z"/><path class="cls-2" d="M16.54,40l.43-.51-.54-.64-.54.64.43.51c0,.26,0,2.49-1.3,3.29a2.83,2.83,0,0,0,1,0,6.47,6.47,0,0,0,.38,1.25,6.47,6.47,0,0,0,.38-1.25,2.83,2.83,0,0,0,1,0C16.52,42.49,16.54,40.26,16.54,40Z"/><path class="cls-2" d="M19.91,43.8l.42-.51-.54-.64-.54.64.43.51c0,.25,0,2.49-1.29,3.29a3.08,3.08,0,0,0,1,0,7.45,7.45,0,0,0,.38,1.25,6.47,6.47,0,0,0,.38-1.25,3.13,3.13,0,0,0,1,0C19.88,46.29,19.9,44.05,19.91,43.8Z"/><path class="cls-2" d="M23.27,40l.43-.51-.54-.64-.54.64.43.51c0,.26,0,2.49-1.3,3.29a2.83,2.83,0,0,0,1,0,6.47,6.47,0,0,0,.38,1.25,6.47,6.47,0,0,0,.38-1.25,2.83,2.83,0,0,0,1,0C23.25,42.49,23.27,40.26,23.27,40Z"/><path class="cls-2" d="M9.81,40l.43-.51-.54-.64-.54.64.43.51c0,.26,0,2.49-1.3,3.29a2.83,2.83,0,0,0,1,0,6.47,6.47,0,0,0,.38,1.25,6.47,6.47,0,0,0,.38-1.25,2.83,2.83,0,0,0,1,0C9.79,42.49,9.81,40.26,9.81,40Z"/><path class="cls-2" d="M32.5,52.36l.43-.51-.54-.64-.54.64.43.51c0,.26,0,2.49-1.3,3.29a2.83,2.83,0,0,0,1,0,6.26,6.26,0,0,0,.38,1.25,7.17,7.17,0,0,0,.38-1.25,2.83,2.83,0,0,0,1,0C32.48,54.85,32.49,52.62,32.5,52.36Z"/><path class="cls-2" d="M32.5,63.79l.43-.51-.54-.64-.54.64.43.51c0,.25,0,2.49-1.3,3.29a3.13,3.13,0,0,0,1,0,6.47,6.47,0,0,0,.38,1.25,7.45,7.45,0,0,0,.38-1.25,3.13,3.13,0,0,0,1,0C32.48,66.28,32.49,64,32.5,63.79Z"/><path class="cls-2" d="M35.62,58.07l.43-.5-.54-.64-.54.64.42.5c0,.26,0,2.5-1.29,3.3a3.13,3.13,0,0,0,1,0,6.28,6.28,0,0,0,.38,1.24,7.21,7.21,0,0,0,.38-1.24,3.06,3.06,0,0,0,1,0C35.6,60.57,35.61,58.33,35.62,58.07Z"/><path class="cls-2" d="M29.34,58.07l.43-.5-.54-.64-.54.64.43.5c0,.26,0,2.5-1.3,3.3a3.13,3.13,0,0,0,1,0,7.21,7.21,0,0,0,.38,1.24,6.28,6.28,0,0,0,.38-1.24,3.13,3.13,0,0,0,1,0C29.32,60.57,29.34,58.33,29.34,58.07Z"/><path class="cls-2" d="M35.62,69.5l.43-.51-.54-.64L35,69l.42.51c0,.26,0,2.49-1.29,3.29a2.83,2.83,0,0,0,1,0A6.47,6.47,0,0,0,35.51,74a7.45,7.45,0,0,0,.38-1.25,2.77,2.77,0,0,0,1,0C35.6,72,35.61,69.76,35.62,69.5Z"/><path class="cls-2" d="M29.34,69.5l.43-.51-.54-.64-.54.64.43.51c0,.26,0,2.49-1.3,3.29a2.83,2.83,0,0,0,1,0A7.45,7.45,0,0,0,29.23,74a6.47,6.47,0,0,0,.38-1.25,2.83,2.83,0,0,0,1,0C29.32,72,29.34,69.76,29.34,69.5Z"/><path class="cls-2" d="M32.5,26.34l.43-.5-.54-.64-.54.64.43.5c0,.26,0,2.49-1.3,3.29a2.83,2.83,0,0,0,1,0,6.26,6.26,0,0,0,.38,1.25,7.17,7.17,0,0,0,.38-1.25,2.83,2.83,0,0,0,1,0C32.48,28.83,32.49,26.6,32.5,26.34Z"/><path class="cls-2" d="M35.62,20.63l.43-.51-.54-.64-.54.64.42.51c0,.26,0,2.49-1.29,3.29a2.83,2.83,0,0,0,1,0,6.47,6.47,0,0,0,.38,1.25,7.45,7.45,0,0,0,.38-1.25,2.77,2.77,0,0,0,1,0C35.6,23.12,35.61,20.89,35.62,20.63Z"/><path class="cls-2" d="M29.34,20.63l.43-.51-.54-.64-.54.64.43.51c0,.26,0,2.49-1.3,3.29a2.83,2.83,0,0,0,1,0,7.45,7.45,0,0,0,.38,1.25,6.47,6.47,0,0,0,.38-1.25,2.83,2.83,0,0,0,1,0C29.32,23.12,29.34,20.89,29.34,20.63Z"/><path class="cls-2" d="M35.62,32.06l.43-.51-.54-.64-.54.64.42.51c0,.25,0,2.49-1.29,3.29a3.13,3.13,0,0,0,1,0,6.28,6.28,0,0,0,.38,1.24,7.21,7.21,0,0,0,.38-1.24,3.06,3.06,0,0,0,1,0C35.6,34.55,35.61,32.31,35.62,32.06Z"/><path class="cls-2" d="M29.34,32.06l.43-.51-.54-.64-.54.64.43.51c0,.25,0,2.49-1.3,3.29a3.13,3.13,0,0,0,1,0,7.21,7.21,0,0,0,.38,1.24,6.28,6.28,0,0,0,.38-1.24,3.13,3.13,0,0,0,1,0C29.32,34.55,29.34,32.31,29.34,32.06Z"/><path class="cls-2" d="M22.32,27.38l.07.26.14.56c.22,1,.4,1.26.89,1.26a.58.58,0,0,0,.58-.38l.1-.35a.18.18,0,0,1,.17-.13c.19,0,.28.2.29.64a6.55,6.55,0,0,0,.12.85,4.16,4.16,0,0,1,.07.77,1.37,1.37,0,0,1-.1.55,7.22,7.22,0,0,1,.1,1.07,2.26,2.26,0,0,1-.21,1.05,2.27,2.27,0,0,1,.09.66,3.9,3.9,0,0,1-.05.58,4.65,4.65,0,0,0-.1.6,1,1,0,0,0,0,.24.69.69,0,0,1,.06.21s0,.09-.06.09l-.35-.14-.38-.21a1.76,1.76,0,0,1-.4-.32c-.35.31-.45.35-1.34.6a1.16,1.16,0,0,0-.38.16.54.54,0,0,1-.23.12c-.15,0-.23-.24-.23-.74a4,4,0,0,1,.11-1,2,2,0,0,0-.63-.16l-.26,0h-.07c-.05,0-.09-.07-.09-.16a1.26,1.26,0,0,1,.1-.38l.18-.42a1.41,1.41,0,0,1,.42-.51,1.18,1.18,0,0,1,.45-.27l.63-.12c.38-.07.6-.27.6-.53s-.17-.42-.54-.55l-.76-.27a3.75,3.75,0,0,1-.68-.33c-.42-.25-.49-.28-.59-.28s-.23.11-.23.31a.49.49,0,0,0,.49.53.51.51,0,0,0,.17,0,.59.59,0,0,1,.18-.06.12.12,0,0,1,.13.14v.07l0,.3a2.54,2.54,0,0,1-.57,1.05l-.15.21a2.42,2.42,0,0,1-.95,1.39.86.86,0,0,0-.19.14,1.61,1.61,0,0,0-.14.24,2.75,2.75,0,0,1-.35.42,3.12,3.12,0,0,1-.44.4,1.67,1.67,0,0,0-.35.32l-.17.3a.2.2,0,0,1-.15.09c-.15,0-.29-.17-.38-.44s-.12-.27-.25-.27a1.24,1.24,0,0,0-.31.06l-.24,0H15.5a2.69,2.69,0,0,0-1,.18.41.41,0,0,1-.18,0s-.07,0-.12-.1a.27.27,0,0,1,0-.14,3.31,3.31,0,0,1,.53-1.41,1.79,1.79,0,0,1,.48-.56.83.83,0,0,0-.49-.59l-.3-.09a.09.09,0,0,1-.07-.08c0-.09.14-.22.4-.36a2.19,2.19,0,0,1,1-.28,1.46,1.46,0,0,1,.9.37c.47.37.6.44.83.44a.75.75,0,0,0,.73-.7,1.59,1.59,0,0,0-.46-.93A2.14,2.14,0,0,1,17.08,30a1.74,1.74,0,0,1,.19-.82l.18-.26a.44.44,0,0,0,.06-.17c0-.12-.14-.2-.32-.2A2.91,2.91,0,0,0,16,29c-.21.13-.35.28-.35.38a.15.15,0,0,0,.07.13l.19.12a.12.12,0,0,1,0,.08.33.33,0,0,1-.07.13l-.35.46a5.83,5.83,0,0,1-.74.77.83.83,0,0,0-.17.18,1.47,1.47,0,0,0-.14.26,3,3,0,0,1-.77.79,1.08,1.08,0,0,0-.25.19,1.49,1.49,0,0,0-.14.24,2.74,2.74,0,0,1-.23.37,3.4,3.4,0,0,1-.42.54l-.49.49a3,3,0,0,0-.49,1.09c-.12.39-.23.61-.3.61s-.08,0-.14-.1c-.34-.4-.64-.63-.8-.63a.51.51,0,0,0-.19.08,1.3,1.3,0,0,1-.48.18l-.65.12a1.36,1.36,0,0,0-1,.53q-.11.12-.15.12c-.06,0-.09-.09-.09-.2V35.8L8,35.33a4.18,4.18,0,0,1,.35-1.14l.3-.54a.6.6,0,0,0,.09-.29,1,1,0,0,0-.93-.82c-.13,0-.18,0-.18-.11s.14-.26.34-.41a2.12,2.12,0,0,1,1.1-.46,2.57,2.57,0,0,1,.79.21l.38.16a1.08,1.08,0,0,0,.39.09c.41,0,.81-.37,1.29-1.21a1.85,1.85,0,0,0,.32-.9c0-.44-.21-.71-.56-.71a1.12,1.12,0,0,0-.75.33.8.8,0,0,0-.27.54v.24c0,.17-.05.26-.15.26s-.4-.24-1.09-1.07A2.07,2.07,0,0,1,8.76,28C8.17,27.23,8,26.91,8,26.37L8,26a1.66,1.66,0,0,1-.52-1.22.88.88,0,0,1,.12-.46,1.62,1.62,0,0,1-.33-.68l-.09-.37a1.83,1.83,0,0,0-.28-.65c-.16-.22-.18-.25-.18-.33s.14-.29.76-.44a2.31,2.31,0,0,1,0-.39,1.64,1.64,0,0,1,.06-.41l.12-.65a3.28,3.28,0,0,0,.07-.56,2,2,0,0,0-.12-.56,3.18,3.18,0,0,0-.16-.41.6.6,0,0,1-.11-.24c0-.06,0-.09.12-.09a3,3,0,0,1,1.11.67,2.77,2.77,0,0,1,1.35,2.17c0,.08,0,.19.05.35A1.56,1.56,0,0,1,10.71,23a2.23,2.23,0,0,1-.35,1.12l-.36.55a1.09,1.09,0,0,0-.15.58,2,2,0,0,0,.33,1.05c.27.47.5.66.78.66.46,0,.87-.8.87-1.72v-.43a4.14,4.14,0,0,1,0-.58c0-.27.05-.44.05-.51l0-.42V23a.52.52,0,0,0-.18-.33l-.39-.42a2.71,2.71,0,0,1-.86-1.61.89.89,0,0,1,.89-.93,1.28,1.28,0,0,1,.37.07v-.12c0-.77.16-1.34.37-1.34l.09,0,.31.28.39.25.1.1c0-.21,0-.24.23-.49a2.68,2.68,0,0,0,.25-.33l.17-.26.09-.16c.05-.09.09-.13.15-.13s.08.06.15.25.07.15.37.42a1.82,1.82,0,0,1,.21.23l.14.35a.82.82,0,0,0,.05.14,1.17,1.17,0,0,1,.35-.32l.26-.15a.57.57,0,0,1,.2-.09s0,0,.08.1.08.15.14.27a1.28,1.28,0,0,1,.25.63v.38a1,1,0,0,1,.79,1.1,2.48,2.48,0,0,1-.69,1.5c-.3.35-.33.43-.33.67,0,1.3.9,2.05,2.49,2.07l1.17,0a5.63,5.63,0,0,1,1.91.32,4.55,4.55,0,0,0,1.31.33.39.39,0,0,0,.23-.07.18.18,0,0,0,.1-.16c0-.24-.43-.44-1.83-.84-2.89-.82-4.12-2-4.12-3.89A2.69,2.69,0,0,1,20,18.23a6.29,6.29,0,0,1,1.75.3l.72.27a1.06,1.06,0,0,0,.38.07c.24,0,.36-.2.37-.62,0-.22.06-.29.2-.29s.52.25.8.65a2.21,2.21,0,0,1,.47,1.14,1,1,0,0,1-.61.92,1.72,1.72,0,0,1-1.53.88,5.71,5.71,0,0,1-2.41-1,1.76,1.76,0,0,0-.84-.31.46.46,0,0,0-.52.45c0,.26.2.42.71.6a2.51,2.51,0,0,1,1.25.68,3.49,3.49,0,0,1,1.83.74c1.54.49,2.5,1.53,2.5,2.74a1.9,1.9,0,0,1-1.9,2,3.19,3.19,0,0,1-.82-.11"/><path class="cls-7" d="M24.05,35.05a1.7,1.7,0,0,1-.06-.42v-.14l.05-.28,0-.23a.89.89,0,0,0-.12-.52l-.22-.28a1.54,1.54,0,0,1-.17-.34.56.56,0,0,1,0-.15.12.12,0,0,1,.13-.12c.05,0,.07,0,.23.1a.32.32,0,0,0,.17.06c.1,0,.16-.17.16-.47s0-.52-.11-.61l-.26-.3-.23-.19a.24.24,0,0,1-.09-.15.13.13,0,0,1,.14-.13,1.5,1.5,0,0,1,.39.09l.08,0c.07,0,.1,0,.1-.15v-.06l-.06-.37-.1-.39c0-.12-.06-.14-.13-.14h-.05l-.43.09h-.07A1.56,1.56,0,0,1,22,28.89l-.35-1.14a2.34,2.34,0,0,0-.84-1.07.76.76,0,0,0-.35-.19l-.32,0q-.09,0-.09-.09c0-.07.06-.1.21-.1l.58,0a4.32,4.32,0,0,1,.95.25,3.65,3.65,0,0,0,1.17.25,1.22,1.22,0,0,0,1.4-1.26A2.22,2.22,0,0,0,23.67,24a1.73,1.73,0,0,0-.58-.39.09.09,0,0,0-.09.09l0,.23v0c0,.09-.05.15-.12.15s-.19-.11-.3-.35a1.7,1.7,0,0,0-1.4-1.09c-.1,0-.16,0-.16.09a.94.94,0,0,0,.09.25l.13.32a.46.46,0,0,1,.06.16s0,0-.07,0a.55.55,0,0,1-.3-.17l-.26-.28-.23-.35a1.53,1.53,0,0,0-.72-.61l-.42-.23a.4.4,0,0,0-.22-.07.08.08,0,0,0-.09.09.32.32,0,0,0,.07.19,1,1,0,0,1,.18.35.1.1,0,0,1-.09.11c-.14,0-.42-.28-.67-.65a1.76,1.76,0,0,1-.32-1,1.27,1.27,0,0,1,1.3-1.31,2.61,2.61,0,0,1,1.31.44l.83.51a2.08,2.08,0,0,0,.95.31,3,3,0,0,0,.52-.08,1,1,0,0,0,.21-.09.14.14,0,0,0,.08-.1.09.09,0,0,0-.05-.08l-.1,0-.39-.07a2.3,2.3,0,0,1-.47-.18c-.46-.21-.76-.36-.88-.43a4.33,4.33,0,0,0-.57-.34c-.15,0-.24-.11-.24-.16s0-.08.08-.08a.34.34,0,0,1,.19.07,1.34,1.34,0,0,0,.65.24l.75.27a4.67,4.67,0,0,0,1.17.24.58.58,0,0,0,.57-.58,1.57,1.57,0,0,0-.3-.77c0-.05-.08-.09-.12-.09s-.11,0-.11.14l0,.15,0,.2a.38.38,0,0,1-.34.41.88.88,0,0,1-.28-.06l-1.14-.36A5.83,5.83,0,0,0,20,18.67a2.26,2.26,0,0,0-2.4,2.17c0,1.39,1,2.29,3.4,3.12s2.71,1,2.71,1.63a.74.74,0,0,1-.75.67,1.76,1.76,0,0,1-.42,0l-1.19-.28a9,9,0,0,0-2.18-.24,4.49,4.49,0,0,0-3.5,1.1.56.56,0,0,1-.51.23H15l-.24,0h0a.57.57,0,0,0-.5.32c-.18.29-.28.45-.3.47a.22.22,0,0,1-.19.1c-.16,0-.26-.11-.43-.54a1.64,1.64,0,0,0-.37-.52l-.35-.32a.21.21,0,0,1-.09-.13.32.32,0,0,1,.07-.17,1.21,1.21,0,0,0,.24-.45c0-.24.06-.25.15-.25s.14.11.15.51a1.2,1.2,0,0,0,.14.47l.2.42a.15.15,0,0,0,.15.09c.18,0,.41-.42.48-.87s.09-.5.16-.5a.1.1,0,0,1,.08,0s.07.13.16.32a.69.69,0,0,0,.23.26.82.82,0,0,0,.21.12h0c.14,0,.19-.09.22-.42l0-.17,0-.25,0-.17c0-.11,0-.18.1-.18a.17.17,0,0,1,.13.07l.18.18a.52.52,0,0,0,.35.17c.14,0,.23-.06.23-.16a.91.91,0,0,0-.16-.4l-.12-.23c-.14-.26-.26-.37-.39-.37l-.17,0-.21.09-.14,0a.07.07,0,0,1-.06-.07,1.65,1.65,0,0,1,.3-.71,3.39,3.39,0,0,0,.28-1.38c.06-.91.18-1.51.31-1.51s.12.08.12.27v.41c0,.16,0,.3.07.3s.33-.23.47-.59A1,1,0,0,0,16.5,21l0-.08-.34-.65-.36-.1a.23.23,0,0,1-.12-.08v-.43l0-.21-.07-.17-.09-.2a2,2,0,0,0-.7.53c-.14.18-.22.25-.28.25a.09.09,0,0,1-.09-.09,2.43,2.43,0,0,1,0-.29v-.09a1.22,1.22,0,0,0-.6-1l-.11.14-.12.17-.21.25a1,1,0,0,0-.18.35.75.75,0,0,0,0,.2v.09c0,.15,0,.18-.08.18h0L13,19.55l-.19-.21-.3-.19L12.32,19l-.07.15a.72.72,0,0,0-.09.28l0,.28,0,.3v.05c0,.16,0,.21-.13.21a.56.56,0,0,1-.21-.08.45.45,0,0,0-.25-.07.43.43,0,0,0-.45.48,1.55,1.55,0,0,0,.28.92l.23.3c.06.07.18.14.18.1l.05-.37-.06-.29v-.14c0-.11,0-.18.11-.18s.16.11.22.4l.14.65.14.82a3.27,3.27,0,0,0,.21.7,4,4,0,0,0,.3.62c.19.25.21.28.21.34a.08.08,0,0,1-.07.08.35.35,0,0,1-.16-.06,1,1,0,0,0-.21-.07l-.14,0c-.28,0-.34.25-.34,1.42A6.9,6.9,0,0,0,12.51,28l.37.93a1.14,1.14,0,0,1,.08.44c0,1.27-1.69,3.28-3.55,4.2a1.44,1.44,0,0,0-1,1.44l0,.23A2.37,2.37,0,0,1,9,35c.53-.14.63-.2.71-.46l.06-.22c0-.09.08-.12.48-.34a.75.75,0,0,0,.28-.22c.09-.15.16-.23.21-.23a.05.05,0,0,1,.06.06v.06l-.17.5,0,.12a1,1,0,0,0,.59.87,1.66,1.66,0,0,1,.22-.74l.32-.49a1.29,1.29,0,0,0,.16-.75,3,3,0,0,0,0-.54v-.14c0-.09.05-.14.12-.14s.11,0,.12,0l.07.33a.17.17,0,0,0,.17.13c.17,0,.39-.22.62-.62a.94.94,0,0,0,.13-.46l0-.24L13,31.25V31.2c0-.12.06-.2.15-.2a.09.09,0,0,1,.08,0l.1.4c0,.14.13.23.23.23s.32-.2.44-.44a1.61,1.61,0,0,0,.16-.71c0-.38,0-.49.17-.49a.09.09,0,0,1,.09,0l.07.22c0,.09.07.14.12.14s.27-.21.4-.43a.32.32,0,0,0,.06-.17c0-.07-.05-.15-.16-.24s-.19-.17-.19-.4a1,1,0,0,1,.19-.61l.23-.42c.22-.44.3-.55.38-.55a.16.16,0,0,1,.13.16.43.43,0,0,1,0,.14.55.55,0,0,0-.07.21.13.13,0,0,0,.13.13.68.68,0,0,0,.31-.11,3.75,3.75,0,0,1,.49-.19l.58-.21a.88.88,0,0,1,.35-.06,1.65,1.65,0,0,1,.31,0,2.16,2.16,0,0,0,.4.07.31.31,0,0,0,.3-.29,1.05,1.05,0,0,0-.28-.53.33.33,0,0,1-.09-.16l0-.07a.1.1,0,0,1,.09-.07c.12,0,.4.29.65.68,1.5,2.38,2.05,2.95,3.06,3.26s1.3.55,1.3,1.17A2.25,2.25,0,0,1,22.61,33a3.42,3.42,0,0,0-.94,2.21v.13l.19-.09.28-.13.44-.08a.39.39,0,0,0,.25-.36v0l-.05-.39v-.05a.53.53,0,0,1,.16-.37.18.18,0,0,1,.09,0,.19.19,0,0,1,.14.11l.28.59c.11.25.25.36.61.53"/><path class="cls-7" d="M9.93,22.35c-.13,0-.19.11-.21.35l0,.34a2.73,2.73,0,0,0,0,.42c0,.25.07.44.17.44s.29-.22.38-.46a1.29,1.29,0,0,0,.08-.41,1.23,1.23,0,0,0-.08-.4c-.07-.18-.16-.28-.27-.28"/><path class="cls-7" d="M8.48,19.8l.25.24a2.76,2.76,0,0,1,.59,2c0,.2,0,.34-.05.9,0,.29,0,.53,0,.72,0,2.17.71,3.81,1.64,3.81.3,0,.49-.14.76-.56,0-.06.12-.12.16-.12s.09,0,.09.14l0,.39,0,.33L12,28l.06.33v0c0,.1,0,.16-.13.17l-.31.05a1.34,1.34,0,0,0-.49.2,1.36,1.36,0,0,0-.46.35l-.19.4c0,.05-.07.09-.11.09s-.26-.18-.45-.49a1.74,1.74,0,0,1-.26-.58c0-.05,0-.07.16-.07h.4l.16,0a.12.12,0,0,0,.1-.12.12.12,0,0,0-.07-.11l-.79-.33A1.23,1.23,0,0,1,9,27.36a2.25,2.25,0,0,1-.32-.79.15.15,0,0,1,.14-.17l.12,0a.65.65,0,0,0,.23.07.13.13,0,0,0,.13-.11.41.41,0,0,0-.14-.19,2.09,2.09,0,0,1-1-1.49c0-.14,0-.2.1-.2h.13l.23,0h0a.15.15,0,0,0,.15-.14s-.06-.11-.15-.16l-.28-.16a.78.78,0,0,1-.24-.24c0-.05-.13-.23-.3-.56l-.24-.47-.16-.3-.11-.14a1.12,1.12,0,0,1,.55-.14c.24,0,.39.15.56.58.1.26.22.44.29.44s0-.05,0-.2a1.86,1.86,0,0,0-.07-.52,1.22,1.22,0,0,1-.05-.39l0-.25-.21-.1a.49.49,0,0,1-.16-.18A.81.81,0,0,1,8,21.24a1.1,1.1,0,0,1,.06-.32,5.32,5.32,0,0,0,.23-1.15v-.15Z"/><path class="cls-7" d="M10.58,32.42a1.82,1.82,0,0,1-.51-.12l-.33-.14A1.77,1.77,0,0,0,9.07,32a1.08,1.08,0,0,0-.73.3l.16.13.35.24.33.26a.48.48,0,0,0,.29.11,1.64,1.64,0,0,0,1.11-.6"/><path class="cls-7" d="M17.33,35.61a1,1,0,0,1,.35-.46c.49-.42.71-.73.71-1v-.38c0-.23,0-.3.16-.3a.13.13,0,0,1,.11,0l.08.21a.15.15,0,0,0,.15.08c.07,0,.17-.08.26-.2l.17-.24a.59.59,0,0,0,.13-.35.79.79,0,0,0,0-.2s-.06-.12-.12-.28a.83.83,0,0,1-.07-.27q0-.18.15-.18a.19.19,0,0,1,.13,0l.14.17a.17.17,0,0,0,.13.07.26.26,0,0,0,.18-.15l.14-.28a.4.4,0,0,0,.06-.16s-.06-.11-.16-.16l-.23-.1a1.28,1.28,0,0,1-.53-1.13.65.65,0,0,1,0-.19l.12-.29a.67.67,0,0,0,.06-.28,1,1,0,0,0-.18-.55L19,28.75c-.1-.28-.16-.36-.24-.36l-.09,0-.12.07-.2.11-.22.28-.25.12a.81.81,0,0,0-.28.64c0,.46.05.58.65,1.62a2.21,2.21,0,0,1,.35,1c0,.72-.64,1.23-1.93,1.54l-.8.19a1.37,1.37,0,0,0-1.07,1.25,1.25,1.25,0,0,1,.77-.15h.3c.24,0,.27,0,.42-.22a1.23,1.23,0,0,1,.58-.49l.28-.13.22-.12.07,0c.07,0,.1,0,.1.08a.53.53,0,0,1-.17.29.94.94,0,0,0-.28.68.62.62,0,0,0,.2.46"/><path class="cls-7" d="M15.12,32.9a1.82,1.82,0,0,1,.52.47c.17.23.2.24.36.24l.26,0,.15,0c.29,0,.39-.09.39-.17a.21.21,0,0,0-.09-.14l-.19-.18-.19-.17a.92.92,0,0,0-.58-.2,1.06,1.06,0,0,0-.63.22"/><path class="cls-7" d="M20.79,33.84l.11,0h.39a.76.76,0,0,0,.76-.68c0-.12-.11-.19-.31-.19-.47,0-.76.28-.95.88"/><path class="cls-2" d="M14.26,21.74c0,.16.1.3.19.3s.16-.2.34-.5a3.1,3.1,0,0,0,.49-1.06c0-.07,0-.13-.09-.13h0l-.19.17a1.51,1.51,0,0,1-.6.32c-.19.07-.27.15-.27.29l0,.14.09.25Z"/><path class="cls-2" d="M13.19,20.83l.3.16a.2.2,0,0,1,.13.17l0,.11a1.6,1.6,0,0,0,0,.37.3.3,0,0,1-.35.31c-.05,0,0,0-.16-.19l-.39-.44a1.73,1.73,0,0,1-.26-.79v0c0-.1,0-.13.11-.13a.32.32,0,0,1,.19.09Z"/><path class="cls-2" d="M13.87,22.67h-.09l-.2,0-.21-.12a.47.47,0,0,0-.25-.07c-.16,0-.26.08-.26.22a2.57,2.57,0,0,0,.23.78l.23.56c.2.49.39.7.65.7s.26-.23.41-.62c.35-.88.55-1,.55-1.32s0-.27-.24-.27l-.17,0-.28.18Z"/><path class="cls-7" d="M13.86,23.16h-.23a.12.12,0,0,0-.09.05l0,.09.08.42.08.37c0,.2.11.28.26.28s.28-.12.3-.34l0-.38c0-.26,0-.39,0-.4a.14.14,0,0,0-.06-.11.13.13,0,0,0-.09,0h0Z"/><path class="cls-2" d="M55,27.38l.08.26.14.56c.22,1,.4,1.26.89,1.26a.58.58,0,0,0,.58-.38l.1-.35A.18.18,0,0,1,57,28.6c.19,0,.29.21.31.64a7.64,7.64,0,0,0,.1.85,4.93,4.93,0,0,1,.07.81,1.28,1.28,0,0,1-.1.51l0,.21a3.3,3.3,0,0,1,.07.64,2.12,2.12,0,0,1-.21,1.27,2.25,2.25,0,0,1,.09.62c0,.14,0,.32-.05.62l-.08.53,0,.31a.89.89,0,0,1,.07.21.08.08,0,0,1-.07.09l-.35-.14-.38-.21a1.76,1.76,0,0,1-.4-.32,1.43,1.43,0,0,1-.79.44,3,3,0,0,0-.91.32.58.58,0,0,1-.25.12c-.13,0-.23-.27-.23-.65A3.14,3.14,0,0,1,54,34.4a2.49,2.49,0,0,0-.63-.16l-.26,0H53s-.08-.07-.08-.17a2.07,2.07,0,0,1,.28-.8,1.61,1.61,0,0,1,.86-.78l.63-.12c.38-.07.6-.27.6-.53s-.16-.42-.54-.55l-.74-.27a3.45,3.45,0,0,1-.7-.33L53,30.51a.45.45,0,0,0-.19-.05c-.15,0-.25.11-.25.3a.53.53,0,0,0,.51.54.57.57,0,0,0,.18,0,.46.46,0,0,1,.16-.06c.08,0,.14.08.14.19a2.22,2.22,0,0,1-.41,1.11l-.21.26-.15.21a2.37,2.37,0,0,1-1,1.39.8.8,0,0,0-.19.14,1.61,1.61,0,0,0-.14.24,3.59,3.59,0,0,1-.35.42,3.12,3.12,0,0,1-.44.4,1.67,1.67,0,0,0-.35.32l-.18.3a.15.15,0,0,1-.13.09c-.16,0-.3-.16-.39-.44s-.12-.27-.25-.27a1.17,1.17,0,0,0-.31.06l-.25,0H48.2a2.76,2.76,0,0,0-1,.18.41.41,0,0,1-.18,0c-.09,0-.14-.09-.14-.26a3.24,3.24,0,0,1,1-2,.77.77,0,0,0-.48-.59L47.1,33a.09.09,0,0,1-.06-.08c0-.11.13-.22.41-.36a1.92,1.92,0,0,1,.92-.28,1.44,1.44,0,0,1,.92.37c.47.37.6.44.83.44a.76.76,0,0,0,.73-.7,1.62,1.62,0,0,0-.46-.93A2.24,2.24,0,0,1,49.76,30a1.67,1.67,0,0,1,.37-1,.56.56,0,0,0,.07-.19c0-.1-.16-.18-.34-.18a1.75,1.75,0,0,0-.73.21c-.53.24-.84.47-.84.6a.18.18,0,0,0,.09.15l.17.12a.12.12,0,0,1,0,.08.24.24,0,0,1-.07.13s-.16.19-.36.46a3.87,3.87,0,0,1-.73.77.75.75,0,0,0-.18.18l-.13.26a3.1,3.1,0,0,1-.76.79,1.27,1.27,0,0,0-.24.19,1.37,1.37,0,0,0-.16.24,5,5,0,0,1-.65.91l-.47.49a3.45,3.45,0,0,0-.51,1.09c-.14.42-.24.61-.3.61s-.08,0-.14-.1c-.34-.39-.64-.63-.79-.63a.63.63,0,0,0-.21.08,1.15,1.15,0,0,1-.47.18l-.63.12a1.33,1.33,0,0,0-1,.53c-.06.08-.11.12-.14.12s-.11-.09-.11-.21l0-.16a4,4,0,0,0,.09-.47A4,4,0,0,1,41,34.19l.32-.54a.67.67,0,0,0,.08-.28c0-.41-.37-.74-.94-.83-.12,0-.18-.06-.18-.12s.14-.24.35-.4a2.05,2.05,0,0,1,1.07-.46,2.34,2.34,0,0,1,.81.21l.38.16a1,1,0,0,0,.39.09c.41,0,.8-.37,1.29-1.21a1.85,1.85,0,0,0,.32-.9c0-.44-.21-.71-.55-.71a1.09,1.09,0,0,0-.75.33.87.87,0,0,0-.29.56v.27q0,.21-.15.21c-.14,0-.29-.13-.59-.49l-.49-.58A2,2,0,0,1,41.44,28a2.57,2.57,0,0,1-.74-1.62l0-.36a1.56,1.56,0,0,1-.51-1.21.8.8,0,0,1,.11-.47,1.62,1.62,0,0,1-.33-.68l-.09-.37a1.91,1.91,0,0,0-.28-.65c-.16-.22-.18-.26-.18-.32s.18-.3.62-.41l.14,0a2.31,2.31,0,0,1,0-.39,2.07,2.07,0,0,1,.05-.41l.13-.65a4.38,4.38,0,0,0,.07-.58,1.54,1.54,0,0,0-.11-.54,1.48,1.48,0,0,0-.17-.41.43.43,0,0,1-.11-.23c0-.06.06-.1.14-.1a.38.38,0,0,1,.18.06A7,7,0,0,1,42,20a2.62,2.62,0,0,1,.61,1.79,1.49,1.49,0,0,1,.74,1.33,1.79,1.79,0,0,1-.36,1l-.35.55a1.18,1.18,0,0,0-.15.59,2,2,0,0,0,.33,1c.26.46.5.66.77.66.46,0,.88-.79.88-1.67v-.64l.05-.42,0-.51,0-.42v-.23c0-.18,0-.23-.57-.8a2.6,2.6,0,0,1-.88-1.68.89.89,0,0,1,.89-.86,1.34,1.34,0,0,1,.37.07v-.21l0-.37.11-.45c.08-.37.12-.43.24-.43l.09,0,.31.28.39.25.1.1a.76.76,0,0,1,.23-.49l.25-.33.17-.26.11-.16c.07-.11.1-.13.14-.13s.08.06.14.25a.46.46,0,0,0,.15.23l.23.19a1.28,1.28,0,0,1,.39.72,1.15,1.15,0,0,1,.35-.32l.28-.15.18-.09s.05,0,.08.1a2.29,2.29,0,0,0,.14.27c.23.36.25.41.25.66v.35a1,1,0,0,1,.79,1.1,2.42,2.42,0,0,1-.67,1.5c-.3.36-.35.47-.35.74,0,1.23.93,2,2.5,2l1.16,0a5.59,5.59,0,0,1,1.91.32,4.74,4.74,0,0,0,1.32.33c.18,0,.32-.1.32-.22s-.42-.45-1.83-.85c-2.89-.81-4.12-2-4.12-3.89a2.69,2.69,0,0,1,2.83-2.62,6.22,6.22,0,0,1,1.74.29l.72.27a1,1,0,0,0,.37.07c.25,0,.35-.15.38-.62,0-.2.08-.29.22-.29s.54.29.8.65a2.32,2.32,0,0,1,.45,1.17,1,1,0,0,1-.61.89,1.72,1.72,0,0,1-1.53.88,5.84,5.84,0,0,1-2.41-1,1.63,1.63,0,0,0-.84-.31.46.46,0,0,0-.52.45c0,.26.19.41.71.6.83.29,1,.39,1.24.68a3.52,3.52,0,0,1,1.84.74c1.6.51,2.49,1.5,2.49,2.76a1.86,1.86,0,0,1-1.86,2,3.32,3.32,0,0,1-.86-.1"/><path class="cls-7" d="M56.73,35.05a1.39,1.39,0,0,1-.06-.32l0-.24a4,4,0,0,0,.06-.68.54.54,0,0,0-.13-.35l-.21-.28a.84.84,0,0,1-.19-.48c0-.1,0-.14.1-.14l.08,0,.15.09a.38.38,0,0,0,.18.06c.1,0,.16-.17.16-.49a1,1,0,0,0-.35-.89l-.25-.19a.19.19,0,0,1-.07-.14.12.12,0,0,1,.13-.14.58.58,0,0,1,.2,0l.2,0,.07,0q.09,0,.09-.15v-.06l0-.37c-.05-.38-.12-.53-.23-.53h0l-.46.09h-.07a1.61,1.61,0,0,1-1.36-1.09l-.33-1.14a2.34,2.34,0,0,0-.85-1.07.74.74,0,0,0-.36-.19l-.32,0q-.09,0-.09-.09c0-.07.06-.1.19-.1a4.86,4.86,0,0,1,1.55.3,4,4,0,0,0,1.17.25c.88,0,1.4-.45,1.4-1.21a2.3,2.3,0,0,0-.33-1.16,2.66,2.66,0,0,0-.82-.77.3.3,0,0,0-.14-.06.09.09,0,0,0-.09.09l0,.23v0c0,.09-.05.15-.11.15s-.2-.11-.31-.35a1.67,1.67,0,0,0-1.38-1.09c-.12,0-.19,0-.19.11a.58.58,0,0,0,.1.23,3.26,3.26,0,0,1,.15.32.37.37,0,0,1,0,.15s0,.05-.08.05a.56.56,0,0,1-.29-.17l-.26-.28-.23-.35a1.68,1.68,0,0,0-.7-.61L52,21.88a.46.46,0,0,0-.22-.07c-.06,0-.09,0-.09.08a.43.43,0,0,0,.08.2.88.88,0,0,1,.17.35.1.1,0,0,1-.09.11c-.13,0-.34-.23-.65-.65a1.63,1.63,0,0,1-.34-1,1.29,1.29,0,0,1,1.3-1.31,2.68,2.68,0,0,1,1.31.44l.84.51a2.19,2.19,0,0,0,1,.31,1.57,1.57,0,0,0,.5-.08l.22-.09a.12.12,0,0,0,.07-.1c0-.07,0-.1-.15-.11a5.17,5.17,0,0,1-1.74-.68,5.68,5.68,0,0,0-.57-.34c-.15-.05-.25-.12-.25-.18s0,0,.08,0h.1l.77.28.73.27a4.94,4.94,0,0,0,1.18.24.54.54,0,0,0,.56-.56,1.1,1.1,0,0,0-.11-.49c-.11-.21-.25-.38-.3-.38s-.11.06-.11.18v.1l0,.22c0,.24-.13.39-.33.39a.88.88,0,0,1-.29-.06l-1.14-.36a5.66,5.66,0,0,0-1.86-.41,2.25,2.25,0,0,0-2.41,2.17c0,1.4,1,2.27,3.42,3.12s2.69,1,2.69,1.65a.71.71,0,0,1-.76.65,1.62,1.62,0,0,1-.41,0L54,25.94a8.94,8.94,0,0,0-2.18-.24,4.37,4.37,0,0,0-3.48,1.1.6.6,0,0,1-.53.23h-.12l-.27,0a.56.56,0,0,0-.5.32l-.28.47a.21.21,0,0,1-.2.1c-.18,0-.28-.12-.45-.54a1.36,1.36,0,0,0-.35-.52l-.36-.32c-.06-.05-.09-.09-.09-.13a.39.39,0,0,1,.09-.17,2.52,2.52,0,0,0,.15-.24.52.52,0,0,0,.09-.21l0-.16a.12.12,0,0,1,.12-.09c.12,0,.14.08.14.51a1.3,1.3,0,0,0,.14.47l.19.42a.17.17,0,0,0,.16.09c.18,0,.41-.42.47-.87s.09-.5.17-.5.11.05.26.36a.71.71,0,0,0,.21.26.49.49,0,0,0,.2.12h0c.15,0,.2-.09.23-.42l0-.17,0-.25,0-.17c0-.11,0-.18.1-.18a.17.17,0,0,1,.13.07l.18.18a.51.51,0,0,0,.35.17c.15,0,.24-.06.24-.17s0-.13-.17-.39a1.88,1.88,0,0,1-.12-.23c-.16-.29-.23-.37-.37-.37l-.18,0-.22.09-.14,0a.07.07,0,0,1-.06-.07,1.6,1.6,0,0,1,.3-.71,4.1,4.1,0,0,0,.3-1.38l.09-.82c0-.51.1-.69.21-.69a.08.08,0,0,1,.07,0l0,.26v.21a1,1,0,0,0,.06.47c.07,0,.18-.09.29-.24a1.42,1.42,0,0,0,.17-.35,1.59,1.59,0,0,0,.09-.46c0-.4-.17-.58-.72-.73l-.1-.05,0-.16v-.3l0-.21-.06-.17-.09-.2-.14.09a1.61,1.61,0,0,0-.56.44c-.16.2-.22.25-.28.25a.08.08,0,0,1-.09-.08l.07-.3v-.05a1.3,1.3,0,0,0-.61-1l-.12.14-.12.17-.21.25a.84.84,0,0,0-.2.52v.12c0,.13,0,.18-.09.18h0l-.14-.18-.17-.21-.32-.19L45,19a1.42,1.42,0,0,0-.18.87v.15c0,.16,0,.25-.14.25a.63.63,0,0,1-.21-.08.48.48,0,0,0-.26-.07.46.46,0,0,0-.44.51,1.54,1.54,0,0,0,.28.89c.14.22.32.41.4.41a2.77,2.77,0,0,0,.06-.38l-.06-.29v-.14c0-.11,0-.18.11-.18s.16.11.22.4l.14.65.14.82a3.27,3.27,0,0,0,.21.7,4,4,0,0,0,.3.62c.19.25.21.28.21.34a.08.08,0,0,1-.07.08.35.35,0,0,1-.16-.06,1,1,0,0,0-.21-.07H45.2c-.29,0-.35.23-.35,1.39A7,7,0,0,0,45.19,28l.37.93a1.36,1.36,0,0,1,.08.44c0,1.28-1.73,3.32-3.55,4.2-.71.34-.92.7-1,1.67a2.79,2.79,0,0,1,.61-.25c.52-.14.63-.22.7-.46l.07-.22c0-.1.1-.15.46-.34a.74.74,0,0,0,.28-.22c.09-.15.16-.23.2-.23s.08,0,.08.09v0l-.2.5,0,.12a1,1,0,0,0,.59.87l0-.21a2.16,2.16,0,0,1,.17-.53l.34-.49c.12-.17.14-.29.14-.74l0-.55v-.14c0-.09,0-.14.12-.14s.11,0,.12,0l.05.33a.17.17,0,0,0,.17.13c.17,0,.39-.22.62-.62a.84.84,0,0,0,.12-.42,4.31,4.31,0,0,0,0-.54v-.1a.13.13,0,0,1,.13-.15.1.1,0,0,1,.09,0l.12.4c0,.14.13.23.23.23.27,0,.55-.55.57-1.14,0-.37.07-.5.18-.5a.09.09,0,0,1,.09,0l.07.22c0,.09.07.14.12.14s.14-.07.25-.21a1.43,1.43,0,0,0,.15-.22.38.38,0,0,0,.06-.19c0-.09,0-.11-.16-.22a.42.42,0,0,1-.19-.36,2.21,2.21,0,0,1,.41-1.07c.29-.49.33-.55.4-.55a.14.14,0,0,1,.12.15.42.42,0,0,1,0,.15.55.55,0,0,0-.07.21.13.13,0,0,0,.14.13.68.68,0,0,0,.31-.11,3.87,3.87,0,0,1,.48-.19l.59-.21a1.09,1.09,0,0,1,.36-.06,1.65,1.65,0,0,1,.31,0,1.92,1.92,0,0,0,.4.07.27.27,0,0,0,.28-.28.7.7,0,0,0-.1-.3L50.83,27c-.08-.08-.11-.13-.11-.16l0-.07a.1.1,0,0,1,.1-.07c.14,0,.41.28.65.68,1.38,2.24,2,2.95,3,3.26s1.3.54,1.3,1.17A2.3,2.3,0,0,1,55.29,33a3.69,3.69,0,0,0-.94,2.19v.15l.19-.09.28-.13.44-.08a.37.37,0,0,0,.25-.37v0l0-.39v-.06c0-.22.1-.4.23-.4a.19.19,0,0,1,.14.11l.28.59c.11.25.24.36.61.53"/><path class="cls-7" d="M42.37,23l0,.28v.17c0,.28,0,.4.15.4s.3-.21.38-.45A1.82,1.82,0,0,0,43,23a1.09,1.09,0,0,0-.09-.33c-.08-.19-.16-.28-.26-.28s-.22.19-.25.69"/><path class="cls-7" d="M41.16,19.8l.25.24a2.77,2.77,0,0,1,.6,1.79v.29L42,23l0,.69c0,2.28.67,3.85,1.65,3.85a1.06,1.06,0,0,0,.75-.57c.05-.07.1-.12.14-.12s.08,0,.09.14l0,.39,0,.33c0,.16,0,.28,0,.37a2.71,2.71,0,0,1,0,.34c0,.18,0,.2-.45.25a1.13,1.13,0,0,0-.49.2,1.73,1.73,0,0,0-.46.35l-.19.4c0,.05-.07.09-.11.09s-.24-.16-.43-.49a1.71,1.71,0,0,1-.26-.57c0-.06,0-.08.15-.08h.4l.15,0a.13.13,0,0,0,.1-.13.12.12,0,0,0-.07-.1l-.79-.33a1.44,1.44,0,0,1-.58-.58,1.8,1.8,0,0,1-.32-.76c0-.13.06-.21.14-.21l.13,0a.5.5,0,0,0,.21.07l.09,0a.14.14,0,0,0,0-.09c0-.05,0-.11-.14-.18a2.12,2.12,0,0,1-1-1.49c0-.14,0-.2.1-.2H41l.24,0c.1,0,.16,0,.16-.14s-.06-.11-.16-.16c-.43-.22-.54-.34-.82-1a3.39,3.39,0,0,0-.51-.91,1.1,1.1,0,0,1,.55-.14c.24,0,.39.15.56.58.1.26.22.44.29.44s0-.05,0-.2a1.86,1.86,0,0,0-.07-.52,1.22,1.22,0,0,1,0-.39l0-.25-.19-.1a.66.66,0,0,1-.3-.57,1.66,1.66,0,0,1,0-.32s0-.16.11-.41a3.09,3.09,0,0,0,.12-.74v-.15Z"/><path class="cls-7" d="M43.26,32.42a2.59,2.59,0,0,1-.84-.26,1.56,1.56,0,0,0-.66-.18,1.09,1.09,0,0,0-.74.3l.16.13.35.24.33.26a.48.48,0,0,0,.3.11c.34,0,.63-.16,1.1-.6"/><path class="cls-7" d="M50,35.61a1,1,0,0,1,.36-.46c.48-.42.71-.73.71-1v-.38c0-.23,0-.3.16-.3a.13.13,0,0,1,.11,0l.08.21a.15.15,0,0,0,.15.08c.13,0,.22-.09.43-.44a.69.69,0,0,0,.13-.35.51.51,0,0,0,0-.2,1.91,1.91,0,0,1-.12-.28.88.88,0,0,1-.08-.27c0-.12.06-.18.16-.18a.19.19,0,0,1,.13,0l.14.17s0,.07.09.07a.32.32,0,0,0,.22-.15l.14-.28a.4.4,0,0,0,.06-.16c0-.06-.06-.12-.15-.16l-.24-.1a1.26,1.26,0,0,1-.53-1.09.7.7,0,0,1,.06-.23l.1-.29a.79.79,0,0,0,0-.3,1,1,0,0,0-.17-.53c-.12-.19-.19-.32-.21-.36-.1-.27-.16-.35-.25-.35a.42.42,0,0,0-.22.08l-.18.11-.25.28L50.6,29a.82.82,0,0,0-.29.66c0,.37.09.58.66,1.6a2.2,2.2,0,0,1,.35,1c0,.71-.72,1.3-1.91,1.54-1.42.29-1.73.52-1.89,1.44a1.25,1.25,0,0,1,.77-.15h.3c.24,0,.27,0,.42-.22a1.26,1.26,0,0,1,.57-.49l.28-.13.23-.12.07,0c.07,0,.1,0,.1.08a.6.6,0,0,1-.17.29,1,1,0,0,0-.27.58.85.85,0,0,0,.18.56"/><path class="cls-7" d="M47.8,32.9a1.82,1.82,0,0,1,.52.47c.17.23.19.24.36.24l.26,0,.15,0c.3,0,.39-.1.39-.18a.21.21,0,0,0-.07-.13l-.21-.18L49,32.88a1,1,0,0,0-.56-.2,1.17,1.17,0,0,0-.65.22"/><path class="cls-7" d="M53.47,33.84l.11,0H54a.48.48,0,0,0,.34-.08,1.27,1.27,0,0,0,.33-.4.37.37,0,0,0,.07-.2c0-.12-.11-.19-.3-.19-.48,0-.77.27-1,.88"/><path class="cls-2" d="M46.94,21.74c0,.16.1.3.19.3s.19-.25.37-.56a2.74,2.74,0,0,0,.46-1c0-.07,0-.13-.09-.13h0l-.19.17a2.06,2.06,0,0,1-.58.32c-.22.08-.29.15-.29.29l0,.15.14.3Z"/><path class="cls-2" d="M45.4,20.45a.32.32,0,0,0-.2-.09c-.07,0-.1,0-.1.12v.05c0,.1,0,.2.07.3a1.69,1.69,0,0,0,.23.49l.27.44a.83.83,0,0,0,.38.24h0a.09.09,0,0,0,.09-.07l.05-.35.09-.31v-.08a.23.23,0,0,0-.13-.2l-.3-.16Z"/><path class="cls-2" d="M46.55,22.67h-.09l-.2,0-.21-.12a.47.47,0,0,0-.25-.07.24.24,0,0,0-.26.27,2.4,2.4,0,0,0,.23.73c.06.14.13.33.22.56.2.49.4.7.66.7s.41-.19.55-.56l.2-.79c.09-.25.32-.35.32-.52a.45.45,0,0,0-.42-.4l-.1,0-.26.18Z"/><path class="cls-7" d="M46.54,23.16h-.21a.11.11,0,0,0-.09.05.2.2,0,0,0-.05.09l.08.42.07.37c0,.2.08.28.23.28A.33.33,0,0,0,46.9,24l0-.38c0-.26,0-.39,0-.4a.15.15,0,0,0-.14-.15h0Z"/><path class="cls-2" d="M22.65,60.44a3.11,3.11,0,0,1,.23.83l0,.73c0,.74.27,1.11.74,1.11A.53.53,0,0,0,24,63l.2-.19.07,0c.12,0,.19.08.19.23l0,.28a4.5,4.5,0,0,0,.07.81,4.12,4.12,0,0,1,.05.7,1.91,1.91,0,0,1-.15.86,3.33,3.33,0,0,1,.19,1,1.39,1.39,0,0,1-.21.85,2.46,2.46,0,0,1,.09.6,5.08,5.08,0,0,1-.07.67,3.58,3.58,0,0,0-.08.83v0c0,.11,0,.16-.1.16a.32.32,0,0,1-.22-.13c-.11-.14-.18-.19-.26-.19s-.16.06-.34.59a2.13,2.13,0,0,1-.42.65,1.49,1.49,0,0,0-.31.51,3.64,3.64,0,0,1-.11.36.15.15,0,0,1-.1.09h0c-.29,0-.62-.62-1-1.79-.1-.33-.22-.47-.4-.47a.35.35,0,0,0-.3.19l-.11.25a.11.11,0,0,1-.09.07c-.14,0-.35-.26-.49-.58A2.45,2.45,0,0,1,20,68.6c0-.54.41-.95,1.63-1.64a1.36,1.36,0,0,0,.74-1.37,1.34,1.34,0,0,0-.64-1.21,1.37,1.37,0,0,0-.78-.38.27.27,0,0,0-.29.25c0,.16.09.26.32.34s.39.19.39.32a2.34,2.34,0,0,1-.86,1.21,1.62,1.62,0,0,1-.84,1.14,1.88,1.88,0,0,1-.35.64l-.37.48a1.41,1.41,0,0,0-.26.54c0,.27-.07.32-.17.32s-.42-.25-.71-.62a.87.87,0,0,1-.23-.58.83.83,0,0,1-.59.21,1.34,1.34,0,0,0-.48.13,1.39,1.39,0,0,1-.4.18c-.07,0-.1,0-.1-.16L16,68a2.78,2.78,0,0,1,.52-1.56,1.61,1.61,0,0,0-.85-.45c-.11,0-.13,0-.13-.07a.67.67,0,0,1,.16-.32,2.39,2.39,0,0,1,.32-.35,1.76,1.76,0,0,1,1-.37,3.24,3.24,0,0,1,1,.25,1.18,1.18,0,0,0,.42.08c.19,0,.3-.12.3-.34a4.8,4.8,0,0,0-.51-1.62,3.19,3.19,0,0,1-.35-1.15,1.68,1.68,0,0,1,.65-1.42.71.71,0,0,0-.39-.11,1,1,0,0,0-.54.18c-.26.15-.4.28-.4.37s0,.09.14.15.16.14.16.26a2,2,0,0,1-.86,1.39,1.54,1.54,0,0,1-.95,1.24,1.73,1.73,0,0,1-.38.81,3,3,0,0,0-.65,1.21c0,.19-.09.27-.15.27s-.22-.12-.39-.31a3,3,0,0,1-.28-.33,1.58,1.58,0,0,1-.2-.56.61.61,0,0,1-.25,0h-.43a2.29,2.29,0,0,0-1,.21.35.35,0,0,1-.15.07c-.11,0-.21-.23-.21-.53a2.78,2.78,0,0,1,.59-1.72,3.34,3.34,0,0,1-.33-.32l-.14-.12-.2-.11c-.06,0-.1-.08-.1-.11s.25-.34.56-.54a1.64,1.64,0,0,1,.85-.31c.28,0,.44.07.79.38s.42.32.54.32a.32.32,0,0,0,.25-.16.43.43,0,0,0,.09-.26,1.9,1.9,0,0,0-.84-1.19,1.88,1.88,0,0,0-1-.33,1.19,1.19,0,0,0-1.1.63l-.19.4a.2.2,0,0,1-.17.14c-.11,0-.17-.05-.56-.51l-.46-.52a1.57,1.57,0,0,1-.28-.46A.85.85,0,0,0,9.74,60a.77.77,0,0,0-.17-.14,2.32,2.32,0,0,1-.76-1.45,2,2,0,0,0-.05-.23,2.85,2.85,0,0,1-.68-1.74.84.84,0,0,1,0-.24c-.25-.25-.27-.31-.47-1a2.53,2.53,0,0,0-.4-.91.27.27,0,0,1-.07-.13c0-.1.14-.18.4-.22a1.63,1.63,0,0,1,.35,0l.35,0,0-.48a3.3,3.3,0,0,1,.09-.79,1.63,1.63,0,0,0,.05-.37s0-.13,0-.3,0-.22,0-.26a.41.41,0,0,1,0-.15c0-.06,0-.09.1-.09a.62.62,0,0,1,.23.08,4.62,4.62,0,0,1,.76.45,2.71,2.71,0,0,1,1.08,1.66v.13c0,.16,0,.25,0,.26a.48.48,0,0,0,.12.28l.2.27a1.31,1.31,0,0,1,.28.68c0,.17,0,.24-.32.65a1.33,1.33,0,0,0-.3.78,2.41,2.41,0,0,0,.35,1.11c.21.36.45.56.68.56.39,0,.56-.34.62-1.28,0-.49.08-.92.14-1.33l0-.24c0-.11,0-.17-.18-.34l-.52-.61c-.51-.59-.66-.89-.66-1.31a.76.76,0,0,1,.78-.81l.21,0v-.14a1.78,1.78,0,0,1,.09-.47c.11-.38.25-.67.32-.67a.54.54,0,0,1,.17.09l.31.12a2.56,2.56,0,0,1,.35.17,1.65,1.65,0,0,1,.28-.61c.23-.29.49-.52.58-.52s.15.07.28.21l.33.35a1.2,1.2,0,0,1,.2.33l.07.16.21-.12a1.55,1.55,0,0,1,.28-.16l.33-.16a.46.46,0,0,1,.18-.09c.06,0,.09.1.22.68a5,5,0,0,1,.13.78.87.87,0,0,1,.82,1,2.63,2.63,0,0,1-.88,1.76.55.55,0,0,0-.2.42c0,1.55.54,2,2.48,2.24a12.83,12.83,0,0,1,3,.64,5.93,5.93,0,0,0,1.46.31c.33,0,.52-.12.52-.33s-.24-.43-1.63-.72c-3.25-.68-4.52-1.79-4.52-3.93a2.6,2.6,0,0,1,2.66-2.67,4.24,4.24,0,0,1,2.22.75c.89.51,1.07.6,1.27.6s.33-.15.33-.53.07-.37.23-.37a1,1,0,0,1,.54.37,1.26,1.26,0,0,1,.4,1,1.19,1.19,0,0,1-1,1.23l-.15.18a1.43,1.43,0,0,1-1.25.54,2.9,2.9,0,0,1-1.56-.51L20,53.86a1.54,1.54,0,0,0-.88-.37.53.53,0,0,0-.57.57.79.79,0,0,0,.61.76l.79.25a4.29,4.29,0,0,1,.75.31,2.51,2.51,0,0,1,.4,0,3.44,3.44,0,0,1,1.48.37,2,2,0,0,0,.31.15l.44.12a2.7,2.7,0,0,1,1.81,2.48,1.91,1.91,0,0,1-2.11,2Z"/><path class="cls-7" d="M22.35,70.85l.11-.21.24-.27a1.27,1.27,0,0,0,.32-.9,1.93,1.93,0,0,0-.09-.57,1.67,1.67,0,0,1-.07-.31c0-.11.08-.21.16-.21a.21.21,0,0,1,.14.09l.26.29a.57.57,0,0,0,.42.26l0-.24,0-.29a2,2,0,0,0-.39-1.18.8.8,0,0,1-.2-.35c0-.06,0-.12.09-.12l.07,0c.17.13.26.18.31.18s.16-.21.16-.44a1.6,1.6,0,0,0-.36-1l-.21-.26a.22.22,0,0,1,0-.1.13.13,0,0,1,.15-.13.34.34,0,0,1,.21.08.24.24,0,0,0,.14.06c.13,0,.18-.2.18-.72v-.21L24,64c0-.37-.05-.43-.21-.43h-.14c-.85,0-1.25-.54-1.47-2-.16-1.05-.55-1.8-1-2-.29-.1-.4-.16-.4-.24s.08-.09.17-.09a1.1,1.1,0,0,1,.33.08,4.76,4.76,0,0,0,1.8.42,1.43,1.43,0,0,0,1.5-1.4,2.38,2.38,0,0,0-.8-1.7,1,1,0,0,0-.43-.26h0l-.09,0,0,.25.07.18,0,.07a.08.08,0,0,1-.08.07.16.16,0,0,1-.13-.07l-.32-.48a1.67,1.67,0,0,0-1.2-.68c-.14,0-.24.06-.24.16a.43.43,0,0,0,.11.21.59.59,0,0,1,.16.28l0,.07a.12.12,0,0,1-.07.07h0c-.08,0-.12,0-.5-.47a2.27,2.27,0,0,0-1.29-.71.16.16,0,0,0-.13.06l0,.06a.33.33,0,0,0,.12.2.62.62,0,0,1,.2.27s-.05.06-.1.06-.32-.14-.74-.47a2,2,0,0,1-1-1.56,1.14,1.14,0,0,1,1.1-1.21,2.23,2.23,0,0,1,1.18.42l.86.65a2.24,2.24,0,0,0,1.37.46.78.78,0,0,0,.31-.07c.07,0,.12-.09.12-.12s-.06,0-.16-.08a1.91,1.91,0,0,1-.73-.31l-.88-.67a6.79,6.79,0,0,0-.68-.47c-.46-.24-.55-.3-.55-.35s0,0,.1,0a.44.44,0,0,1,.15,0l.46.2a5.05,5.05,0,0,1,.73.43,3.45,3.45,0,0,0,2,.83.87.87,0,0,0,.91-.88.71.71,0,0,0-.08-.3l-.09-.17c0-.06-.08-.11-.1-.09l-.05.07-.05.37-.06.12a.57.57,0,0,1-.12.18.4.4,0,0,1-.32.12c-.27,0-.58-.15-1.4-.67a4.28,4.28,0,0,0-2.17-.8A2.26,2.26,0,0,0,17.61,54c0,1.75,1.07,2.55,4.43,3.28,1.27.28,1.84.65,1.84,1.22s-.42.85-1.09.85a2.64,2.64,0,0,1-.47,0c-.12,0-.72-.19-1.81-.49a9,9,0,0,0-2.34-.33,3.15,3.15,0,0,0-2.81,1.24c-.07.1-.14.16-.18.16a.25.25,0,0,1-.15-.07l-.24-.19a1.18,1.18,0,0,0-.63-.24.53.53,0,0,0-.37.15q-.13.12-.18.12c-.1,0-.28-.22-.42-.51a2.9,2.9,0,0,1-.3-1.19c0-.17.06-.3.14-.3s.1.05.13.14l.14.51c.08.29.23.51.35.51s.15-.08.26-.21a.69.69,0,0,0,.14-.25c.11-.32.14-.36.22-.36s.16.06.23.38a.92.92,0,0,0,.11.3,1.77,1.77,0,0,0,.21.32.28.28,0,0,0,.18.09c.16,0,.3-.26.3-.55v-.07l0-.32c0-.13,0-.17.09-.17s.08,0,.13.09a.87.87,0,0,0,.29.24.63.63,0,0,0,.25.09.24.24,0,0,0,.17-.09.19.19,0,0,0,.08-.14c0-.05-.07-.13-.25-.31a2.17,2.17,0,0,1-.35-.7c0-.14-.12-.23-.17-.23l-.11,0-.23.09-.16.07H15a.12.12,0,0,1-.13-.12,1.14,1.14,0,0,1,.35-.41.67.67,0,0,0,.23-.48c0-.29.06-.52.12-.52l.05-.62a6.86,6.86,0,0,1,.27-1.2c0-.07.05-.11.07-.11s.09.13.09.28v.27c0,.22,0,.33.11.33s.16-.11.24-.3l.15-.4a.88.88,0,0,0,.08-.33.53.53,0,0,0-.49-.59l-.13,0-.12,0a.2.2,0,0,1-.17-.22v-.25l0-.35-.07-.37v-.18l-.16.09-.19.16-.28.22-.23.2a.24.24,0,0,1-.13,0c-.14,0-.15,0-.15-.31v-.07c0-.22-.1-.39-.46-.81L13.87,51l-.06.13-.2.31-.19.49,0,.32c0,.09,0,.16-.07.16s-.1,0-.17-.13a1.36,1.36,0,0,0-.75-.5l0,.12a2.7,2.7,0,0,0-.1.37l0,.33v.25c0,.1,0,.15-.09.15h0l-.1-.09a.38.38,0,0,0-.21,0c-.33,0-.54.18-.54.46s.07.36.4.85c.14.22.31.39.37.39s.08-.11.08-.25l0-.21a1,1,0,0,1-.05-.27c0-.09,0-.15.08-.15s.32.46.39,1.09l.07.65a2.15,2.15,0,0,0,.21.7,2,2,0,0,0,.45.65c.17.11.28.23.28.29a.11.11,0,0,1-.1.11l-.35-.12-.15,0c-.35,0-.46.2-.46.81a3.35,3.35,0,0,0,1,2.21l.81.65A1.91,1.91,0,0,1,15,62c0,.51-.56,1-1.52,1.37l-.58.21c-.45.16-.63.45-.8,1.29a1.45,1.45,0,0,1,.48-.09h.34a.36.36,0,0,0,.4-.34v-.16s.07-.11.16-.15l.24-.13.2-.15a.13.13,0,0,1,.1,0,.1.1,0,0,1,.09.11.49.49,0,0,1,0,.15,1.75,1.75,0,0,0-.1.6,1.46,1.46,0,0,0,.29,1c0-.12,0-.19.05-.23a3.15,3.15,0,0,1,.3-.47,2.35,2.35,0,0,0,.46-1.07v-.07l-.05-.4a.23.23,0,0,1,.09-.19.17.17,0,0,1,.12-.06c.07,0,.12.05.18.18s.09.16.12.16.18-.17.26-.35a1,1,0,0,0,.09-.38.68.68,0,0,0-.05-.22.58.58,0,0,1-.06-.2s0-.07.07-.12l.09,0a.23.23,0,0,1,.11,0l.15.11a.26.26,0,0,0,.14.05.36.36,0,0,0,.25-.19,1.55,1.55,0,0,0,.25-.5s0-.08-.13-.15a1.25,1.25,0,0,1-.58-.93.69.69,0,0,1,.06-.26l.17-.47c.09-.24.14-.36.14-.37l.05,0c.06,0,.1,0,.1.14a.58.58,0,0,1,0,.2.93.93,0,0,0-.08.33.17.17,0,0,0,.19.19.71.71,0,0,0,.29-.07,3.54,3.54,0,0,1,1.2-.35,1,1,0,0,1,.64.23.35.35,0,0,0,.16.07.15.15,0,0,0,.1-.07.18.18,0,0,0,0-.09.43.43,0,0,0-.11-.23.4.4,0,0,1-.12-.24.08.08,0,0,1,.09-.09c.28,0,.71.86,1.12,2.24.32,1.09.41,1.2,1.45,1.79a1.89,1.89,0,0,1,1.21,1.79,9.89,9.89,0,0,1-.67,3.11,3,3,0,0,0-.2.94,2.82,2.82,0,0,0,.17.83,3.14,3.14,0,0,0,.12.4,2.43,2.43,0,0,0,.14.27"/><path class="cls-7" d="M18.29,68.4a2.84,2.84,0,0,1,.33-.6,1.77,1.77,0,0,0,.39-.86v-.28c0-.26,0-.38.15-.38a.09.09,0,0,1,.09,0l.09.14a.15.15,0,0,0,.12.07.33.33,0,0,0,.2-.15,1.16,1.16,0,0,0,.2-.62v-.2l0-.19c0-.11,0-.15.14-.15s.1,0,.16.15.09.14.13.14a.22.22,0,0,0,.15-.1l.14-.21.1-.16,0-.09s0-.09-.13-.16a1.39,1.39,0,0,1-.49-1.24,5.48,5.48,0,0,0-.09-1s-.11-.29-.32-.75c-.07-.19-.14-.4-.21-.64s-.09-.21-.21-.21a.88.88,0,0,0-.84,1,4.47,4.47,0,0,0,.37,1.42,4.1,4.1,0,0,1,.43,1.45c0,.65-.26.93-1.15,1.24a2.18,2.18,0,0,0-1.64,1.81l.17-.07c.11,0,.2-.07.25-.09l.28-.07a.63.63,0,0,0,.47-.33l.07-.25a.17.17,0,0,1,.11-.12l.15-.07.16-.07,0,.07L18,67.1a1.62,1.62,0,0,0,.26,1.3"/><path class="cls-7" d="M8.88,52.2a.7.7,0,0,1,0,.19,2.89,2.89,0,0,1-.07.45l0,.36a2.77,2.77,0,0,0,.15.92,1.29,1.29,0,0,1,.11.4v.08c0,.07-.05.12-.07.12a.41.41,0,0,1-.18-.11,1,1,0,0,0-.65-.26l-.29,0,.08.2.27.65.36.55.39.27a.32.32,0,0,1,.1.1.22.22,0,0,1,.06.12.07.07,0,0,1-.07.06H8.73c-.06,0-.1,0-.1.08a2.48,2.48,0,0,0,.15.52l.18.51.29.28.32.23a.3.3,0,0,1,.15.2.11.11,0,0,1-.07.1H9.48c-.06,0-.09.06-.09.14a1.51,1.51,0,0,0,.35.68c.27.37.46.5.77.5h.27c.12,0,.2.06.2.16s-.05.13-.17.15-.32.1-.32.21a.45.45,0,0,0,.09.19l.14.2c.12.16.25.26.34.26a.46.46,0,0,0,.25-.16,1.09,1.09,0,0,1,.57-.38c.61-.16.73-.22.73-.36a.4.4,0,0,0-.07-.2,1.68,1.68,0,0,1-.26-.86c0-.22,0-.37-.13-.37s-.09,0-.15.14a.78.78,0,0,1-.61.37c-.61,0-1.34-.95-1.7-2.21a3.62,3.62,0,0,1-.13-.94,5.2,5.2,0,0,1,.13-1.07c.12-.52.18-.8.19-.86l0-.24a2.07,2.07,0,0,0-1-1.42"/><path class="cls-7" d="M10.15,54.63a3,3,0,0,0-.25,1.14c0,.2.06.37.15.37s.06,0,.1-.09l.19-.35c0-.06.06-.12.12-.22a.58.58,0,0,0,.12-.26.79.79,0,0,0-.43-.59"/><path class="cls-7" d="M12.07,62.53l.09.09.14.14c.34.35.39.38.56.38a1.9,1.9,0,0,0,.65-.17c.07,0,.12-.09.12-.12s-.06-.1-.17-.2l-.2-.18a1,1,0,0,0-.46-.25,1.33,1.33,0,0,0-.73.31"/><path class="cls-7" d="M16.14,65.7a2.91,2.91,0,0,1,.35.17c.15.11.25.16.27.18a.94.94,0,0,0,.28,0,.62.62,0,0,0,.21,0l.37-.14.35-.12c.1,0,.16-.09.16-.14s-.08-.06-.19-.09l-.26-.09c-.44-.17-.5-.2-.65-.2a1.16,1.16,0,0,0-.89.43"/><path class="cls-7" d="M20.57,69.22c.11-.28.19-.33.59-.35S22,68,22,67.49c0,0,0-.1,0-.1a.22.22,0,0,0-.12.06l-.26.16-.51.22a1.2,1.2,0,0,0-.64,1,1.1,1.1,0,0,0,.1.43"/><path class="cls-2" d="M13,54l.17.24a1.75,1.75,0,0,0,.38.28c.06,0,.09,0,.12-.15l.06-.27,0-.29c0-.23-.1-.32-.58-.44a.57.57,0,0,1-.24-.09.47.47,0,0,0-.21-.11s-.07,0-.07,0l0,.08.08.26Z"/><path class="cls-2" d="M14.87,54l-.22.4-.09.1h0c-.09,0-.19-.21-.19-.43l0-.35c0-.14.12-.21.34-.25a1.07,1.07,0,0,0,.35-.1,1.55,1.55,0,0,1,.28-.19h0a.08.08,0,0,1,.08.09v0l-.12.3Z"/><path class="cls-2" d="M14.42,55.19l.28-.14a.38.38,0,0,1,.13,0c.14,0,.24.1.24.29a2.3,2.3,0,0,1-.37.85c-.23.42-.41.71-.59.71s-.61-.41-.95-1.08A1.14,1.14,0,0,1,13,55.3c0-.22.1-.34.29-.34a.46.46,0,0,1,.2,0l.16.11a.79.79,0,0,0,.44.14.64.64,0,0,0,.31-.07"/><path class="cls-7" d="M14,55.61l-.2,0h0c-.11,0-.16.07-.16.19a1.6,1.6,0,0,0,.31.76.19.19,0,0,0,.14.08c.11,0,.19-.22.25-.57l.05-.26v-.05c0-.11,0-.15-.12-.15h0"/><path class="cls-2" d="M53.12,60.18a1.56,1.56,0,0,0,1.09.67,2.43,2.43,0,0,0,.47-.07.79.79,0,0,1,.23,0c.09,0,.12,0,.12.11a1.18,1.18,0,0,1-.09.33,1.59,1.59,0,0,0-.1.32l-.07.36-.18.32-.24.23-.07.07v.23a1,1,0,0,1-.47.9l-.13.09,0,.14a3.81,3.81,0,0,1-.18.61,2.53,2.53,0,0,1-.33.49,3.57,3.57,0,0,0-.44.72c-.07.18-.12.23-.24.23s-.34-.22-.37-.47a.48.48,0,0,1-.09.1l-.21.14-.33.23a2.11,2.11,0,0,0-.28.21l-.19.19a.15.15,0,0,1-.11.06c-.08,0-.18-.15-.26-.44l-.18-.58a2.27,2.27,0,0,1-.07-.57,1.23,1.23,0,0,1,.12-.62,2.69,2.69,0,0,0-.63.12l-.15,0c-.06,0-.09,0-.09-.11a1,1,0,0,1,.07-.26l.23-.6a1.46,1.46,0,0,1,1.2-.88,1.37,1.37,0,0,1,.44.1,1.31,1.31,0,0,0,.27.05.35.35,0,0,0,.36-.33.25.25,0,0,0-.14-.23s-.24-.08-.63-.19a1.49,1.49,0,0,1-.77-.58c-.24-.28-.33-.36-.42-.36s-.1,0-.1.12v.34a3.15,3.15,0,0,1-.5,1.6l-.49.89a2.18,2.18,0,0,0-.33,1.07c0,.35.15.66.35.72l.26.06a.15.15,0,0,1,.09.06.14.14,0,0,1,.06.1.33.33,0,0,1-.09.16l-.32.4a1.46,1.46,0,0,1-.86.65,1.71,1.71,0,0,1-1.17,1l-.07.12a1.41,1.41,0,0,1-1,.7h-.06a1.36,1.36,0,0,1-.62.89l-.4.3a.88.88,0,0,0-.09.16c-.07.17-.15.25-.25.25s-.34-.18-.45-.51l-.15.1a3.84,3.84,0,0,1-.34.23,3.2,3.2,0,0,1-.61.17,1.64,1.64,0,0,0-.89.44l-.16.26-.07,0c-.09,0-.19-.12-.23-.27a4.11,4.11,0,0,1-.16-1,2.17,2.17,0,0,1,.84-1.67v-.15a1.65,1.65,0,0,1,1.83-1.62h.17l.6,0h0a1.46,1.46,0,0,0,.94-.38c.43-.35.56-.57.56-1a2.91,2.91,0,0,0-.17-.71,2.74,2.74,0,0,1-.13-.82,2.89,2.89,0,0,1,1.25-2.12.67.67,0,0,0,.32-.4s0-.07,0-.07a.46.46,0,0,0-.23.14,2.1,2.1,0,0,1-.42.26l-.28.14-.31.12c-.1,0-.15.09-.15.16a.73.73,0,0,0,0,.16.58.58,0,0,1,0,.13.45.45,0,0,1-.09.2l-.25.4a1.44,1.44,0,0,1-.71.7c-.2.58-.48.87-.9.93-.33.67-.62.9-1.21,1a2.16,2.16,0,0,1-.52.81,2,2,0,0,0-.23.28c-.13.25-.15.26-.21.26a.88.88,0,0,1-.4-.26.83.83,0,0,1-.16-.21L41.7,66c-.05-.09-.1-.13-.17-.13h-.11L41,66a1.2,1.2,0,0,0-.7.4l-.21.32a.14.14,0,0,1-.09,0c-.15,0-.25-.34-.25-.92A1.85,1.85,0,0,1,40,64.73l.49-.68a.47.47,0,0,0,.11-.27.41.41,0,0,0-.09-.22.62.62,0,0,0-.28-.21l-.37-.05c-.07,0-.09,0-.09-.06a.28.28,0,0,1,0-.12,1.61,1.61,0,0,1,.44-.38,1.9,1.9,0,0,1,1-.37,1.67,1.67,0,0,1,.92.3l.51.33a.4.4,0,0,0,.24.07c.24,0,.41-.14.58-.45a1.74,1.74,0,0,0,.23-.82,1.09,1.09,0,0,0-1.12-1.13,1.47,1.47,0,0,0-.91.35.75.75,0,0,0-.18.19l-.14.32c0,.08-.08.12-.12.12s-.29-.25-.46-.58a4,4,0,0,1-.24-.63,2.7,2.7,0,0,1-.15-.87l0-.47A1.85,1.85,0,0,1,40.18,58a1.89,1.89,0,0,1,.12-.61,1.37,1.37,0,0,1-.19-.78l0-.22,0-.25,0-.21a2.64,2.64,0,0,1-.38-1.13,2.07,2.07,0,0,0-.23-.74.31.31,0,0,1-.05-.11c0-.1.24-.19.52-.19l.25,0a.83.83,0,0,1-.07-.35,2.24,2.24,0,0,1,.12-.7,1.38,1.38,0,0,0,.11-.43,1.78,1.78,0,0,0-.07-.53l-.14-.35a.59.59,0,0,1-.05-.19s0,0,.09,0a3,3,0,0,1,1.51.85,1.88,1.88,0,0,1,.68,1.6l0,.38a1.57,1.57,0,0,1,.69,1.14.92.92,0,0,1-.35.72,1.49,1.49,0,0,0-.58,1.32c0,.93.28,1.43.79,1.43s.8-.49.85-1.21l.06-.66a6,6,0,0,1,.08-.63,3.42,3.42,0,0,0,.06-.46c0-.24-.16-.54-.62-1.07a1.91,1.91,0,0,1-.65-1.33.88.88,0,0,1,.87-.94.6.6,0,0,1,.34.1,1.78,1.78,0,0,1,.2-.79c.13-.34.28-.58.35-.58s.06,0,.1.08l.23.19.18.12a1.26,1.26,0,0,1,.15.16,1.69,1.69,0,0,1,.55-.9c.24-.24.33-.31.38-.31s.08,0,.13.09l.21.28.29.33a.88.88,0,0,1,.21.54l.18-.1.28-.16.21-.14a.24.24,0,0,1,.11-.06s.06.06.08.13l.1.4.23.46a.84.84,0,0,1,.09.45v.11h.12c.34,0,.64.41.64.88a2.55,2.55,0,0,1-1.14,1.86,1.45,1.45,0,0,0-.08.47c0,1.39.37,1.68,2.51,2a11.31,11.31,0,0,1,1.44.3l1.38.45a3.39,3.39,0,0,0,1,.23c.26,0,.4-.07.4-.21s-.35-.46-1.42-.88l-1.53-.59a3,3,0,0,1-2.28-2.94,2.77,2.77,0,0,1,2.84-2.84,5.92,5.92,0,0,1,2.07.44,5.52,5.52,0,0,0,1.28.42c.22,0,.33-.15.37-.46s.1-.37.24-.37.45.2.62.53a2.17,2.17,0,0,1,.22.91A1,1,0,0,1,56.13,54a1.7,1.7,0,0,1-1.41.72c-.69,0-1-.13-2.23-.88a1.48,1.48,0,0,0-.92-.33.66.66,0,0,0-.73.61c0,.32.26.53.85.69a.91.91,0,0,1,.57.29,1.3,1.3,0,0,1,.29,0,3.14,3.14,0,0,1,1.87.81,3,3,0,0,1,2,2.48,2.09,2.09,0,0,1-2,2,6.72,6.72,0,0,1-1.35-.22"/><path class="cls-7" d="M52.49,65l.07-.19.07-.25a2.43,2.43,0,0,1,.19-.29,1.41,1.41,0,0,0,.27-.87.79.79,0,0,0-.09-.34.34.34,0,0,1,0-.16.16.16,0,0,1,0-.09.1.1,0,0,1,.07-.05h0a.3.3,0,0,1,.18.12c.08.09.14.14.18.14s.16-.13.21-.33,0-.16,0-.17a2,2,0,0,0-.16-.5.35.35,0,0,1,0-.17c0-.07,0-.12.09-.12a.52.52,0,0,1,.24.15.17.17,0,0,0,.13.07c.11,0,.19-.11.27-.38a2,2,0,0,0,.07-.27q0-.09-.06-.09h-.06l-.21,0a1.46,1.46,0,0,1-1-.48l-.49-.59a5.61,5.61,0,0,1-.44-.58l-.4-.26c-.07,0-.11-.1-.11-.14s.07-.11.17-.11a4.15,4.15,0,0,1,.9.32,5.54,5.54,0,0,0,1.77.39,1.52,1.52,0,0,0,1.53-1.5,2.25,2.25,0,0,0-.69-1.45.59.59,0,0,0-.33-.21.09.09,0,0,0-.09.1.64.64,0,0,0,0,.2.47.47,0,0,1,0,.16q0,.12-.09.12c-.11,0-.22-.18-.32-.49s-.34-.62-.87-.89a1.81,1.81,0,0,0-.56-.2s-.06,0-.06.08a.44.44,0,0,0,.07.2.91.91,0,0,1,.15.34h0a.1.1,0,0,1-.1.11c-.11,0-.14,0-.4-.42a2,2,0,0,0-.78-.6,1.09,1.09,0,0,0-.3-.07h0c-.07,0-.11,0-.11.07a.62.62,0,0,0,.07.16l0,.1a.09.09,0,0,1-.08.09,1.8,1.8,0,0,1-.69-.56,1.75,1.75,0,0,1-.46-1.05,1.35,1.35,0,0,1,1.36-1.26,1,1,0,0,1,.45.09l.61.31.72.48a2.86,2.86,0,0,0,1.32.47,1.91,1.91,0,0,0,.55-.11c.18,0,.28-.11.28-.17v0l-.06,0-.38,0a3.34,3.34,0,0,1-1.09-.49l-.8-.52-.72-.3s-.09-.06-.09-.09a.08.08,0,0,1,.08-.07l.2,0,.67.2a5.15,5.15,0,0,1,.8.37,3.85,3.85,0,0,0,1.56.56.66.66,0,0,0,.7-.66,2.49,2.49,0,0,0-.07-.5.67.67,0,0,0-.1-.23.17.17,0,0,0-.09-.07c-.05,0-.08.06-.08.15v.22c0,.32-.13.43-.49.43a4.72,4.72,0,0,1-1.57-.47A5.15,5.15,0,0,0,52.25,52a2.46,2.46,0,0,0-2.48,2.3c0,1.06.71,1.87,2.14,2.46l1.49.62c1.23.5,1.69.87,1.69,1.34s-.38.66-1,.66A4,4,0,0,1,53,59.08a10.12,10.12,0,0,0-3.1-.63,3.74,3.74,0,0,0-3,1.14c-.1.1-.16.13-.24.13a.48.48,0,0,1-.25-.1.82.82,0,0,0-.39-.13.66.66,0,0,0-.42.24l-.17.22a.22.22,0,0,1-.16.11c-.12,0-.35-.22-.49-.47a1.63,1.63,0,0,1-.17-.46,2.09,2.09,0,0,1,0-.48l0-.33,0-.34c0-.17,0-.27,0-.3a.09.09,0,0,1,.09-.07c.09,0,.13.08.13.27v.19c0,.5.2,1,.41,1s.33-.31.45-.92c0-.12.08-.19.14-.19s.11.09.16.35a1.43,1.43,0,0,0,.26.56c.07.09.14.14.2.14s.24-.21.31-.72c0-.19.09-.31.15-.31a.09.09,0,0,1,.08,0l.12.19a.45.45,0,0,0,.19.17.46.46,0,0,0,.21.07.23.23,0,0,0,.16-.07c.08-.07.12-.12.12-.14s0-.08-.1-.16a1.53,1.53,0,0,1-.32-.57l-.15-.41a.31.31,0,0,0-.09-.12h-.16l-.37.11H46.6a.07.07,0,0,1-.08-.08.36.36,0,0,1,.14-.2,2.56,2.56,0,0,0,.81-1.8,1.75,1.75,0,0,1,.34-1c0-.07.09-.11.11-.11s.11,0,.11.16a.64.64,0,0,1-.06.24.78.78,0,0,0,0,.22v.06l0,.11.2-.07.2-.24a1.29,1.29,0,0,0,.24-.72.59.59,0,0,0-.15-.41c-.11-.13-.18-.18-.26-.18H48c-.11,0-.17,0-.17-.11l0-.13,0-.19-.1-.44L47.64,52l0-.18-.12.09L47.2,52a.9.9,0,0,0-.21.19c-.25.3-.26.32-.36.32s-.1,0-.1-.07v-.07a2.24,2.24,0,0,0,.05-.37,1.68,1.68,0,0,0-.49-1,1.57,1.57,0,0,0-.56,1.11v.21c0,.08,0,.12-.08.12h0a.24.24,0,0,1-.12-.09l-.21-.28-.28-.23-.14-.12-.07.14a1.8,1.8,0,0,0-.25.84c0,.24,0,.3-.08.3l-.11,0c-.27-.15-.29-.16-.4-.16a.52.52,0,0,0-.54.55,1.49,1.49,0,0,0,.22.59c.16.28.4.54.51.54s0,0,0-.1v-.34l0-.23v0c0-.06,0-.09.08-.09s.3.46.41,1.38a2.69,2.69,0,0,0,.69,1.7c.09.09.14.15.14.19a.07.07,0,0,1-.07.06.52.52,0,0,1-.23-.09.36.36,0,0,0-.19,0,.5.5,0,0,0-.41.42l-.15,1-.13,1.4a4,4,0,0,0,.11,1,4.6,4.6,0,0,1,.12.83,2.25,2.25,0,0,1-1.73,2.2l-1.12.33a1.54,1.54,0,0,0-1.14,1.52.79.79,0,0,1,.51-.2l.33-.06a1,1,0,0,0,.3-.08,2,2,0,0,0,.19-.2l.3-.33c.11-.13.21-.2.27-.2a.1.1,0,0,1,.08.1.63.63,0,0,1-.13.29.87.87,0,0,0-.12.45,1,1,0,0,0,.28.69,1,1,0,0,1,.07-.21,4.12,4.12,0,0,1,.26-.37,1.78,1.78,0,0,0,.42-.79c0-.27,0-.36.1-.36s.07,0,.1.17a.16.16,0,0,0,.05.11.2.2,0,0,0,.11.07l.14-.07a1.11,1.11,0,0,0,.27-.25.87.87,0,0,0,.18-.31,1.17,1.17,0,0,0,.09-.33v-.23c0-.06,0-.11,0-.11s.14.09.19.19.07.09.12.09h0a.21.21,0,0,0,.15-.07A1,1,0,0,0,45,63v-.32l-.07-.26v0a.1.1,0,0,1,.09-.1c.08,0,.16.12.28.37s.11.18.16.18.15-.06.32-.3l.15-.23a.27.27,0,0,0,.06-.17.3.3,0,0,0-.06-.18l-.14-.21a.34.34,0,0,1,0-.17,1.71,1.71,0,0,1,.26-.83,4.26,4.26,0,0,0,.23-.43c0-.08.06-.11.1-.11s.06,0,.06.09l0,.19v.28c0,.07.07.09.15.09a.45.45,0,0,0,.18,0l.44-.15a3.67,3.67,0,0,0,.4-.2A2.37,2.37,0,0,1,48.79,60a2.15,2.15,0,0,1,.83.25.46.46,0,0,0,.18.06A.22.22,0,0,0,50,60.2a.18.18,0,0,0,0-.13.4.4,0,0,0-.07-.22,1,1,0,0,1-.1-.26.07.07,0,0,1,.08-.08.19.19,0,0,1,.13.09c.05.09.19.32.4.7a2.08,2.08,0,0,0,1.12,1.07l.77.18c.24.05.3.14.3.44a1.55,1.55,0,0,1-.7,1.31l-.63.4a1.17,1.17,0,0,0-.42.89,4.86,4.86,0,0,0,.12.9l.12-.12.3-.18.27-.26.14-.39.14-.35c.06-.17.14-.28.2-.28s.09.1.09.27v.11a1.39,1.39,0,0,0,.23.74"/><path class="cls-7" d="M42.12,70c0-.84.3-1.2,1.51-1.81C46,67,47.29,65.9,47.29,65.06a3.64,3.64,0,0,0-.21-.94,2.83,2.83,0,0,1-.15-.76A2.13,2.13,0,0,1,47.66,62l.33-.3a.91.91,0,0,0,.32-.55V61c0-.18.07-.24.25-.25l.16,0,.13,0a.18.18,0,0,1,.15.09l.09.14.12.14a.2.2,0,0,0,.11.07l.13-.05a.43.43,0,0,1,.22-.07c.09,0,.13.05.13.15a2.64,2.64,0,0,1-.63,1.4,3.27,3.27,0,0,0-.89,2,1.87,1.87,0,0,0,.39,1.19.42.42,0,0,1,.07.13.44.44,0,0,1-.13.22l-.1.14c-.14.2-.23.28-.33.28a.18.18,0,0,1-.16-.14l-.07-.19s-.06-.09-.1-.09l-.08.07a.37.37,0,0,0-.07.2v.29a.59.59,0,0,1-.12.35,2,2,0,0,1-.24.27.42.42,0,0,1-.14.08s-.1,0-.13-.14l-.1-.35s-.05-.08-.09-.08-.11.09-.12.24a1.34,1.34,0,0,1-.21.74l-.25.22a.4.4,0,0,1-.22.13A.11.11,0,0,1,46,68l-.12-.26a.1.1,0,0,0-.08,0c-.07,0-.12.14-.15.4a1.37,1.37,0,0,1-.54,1.16.89.89,0,0,0-.44.49,1.16,1.16,0,0,1-.21-.7.6.6,0,0,1,.07-.33.82.82,0,0,0,.11-.29s0-.08-.06-.08,0,0-.09.07a1.12,1.12,0,0,1-.22.17.67.67,0,0,0-.44.6A.89.89,0,0,1,43,70c-.59.13-.63.14-.84.34Z"/><path class="cls-7" d="M41,52v.43a1.11,1.11,0,0,1,0,.29,1.61,1.61,0,0,0-.07.39,1.47,1.47,0,0,0,.24.85,1.31,1.31,0,0,1,.19.59c0,.07,0,.11-.08.11a.14.14,0,0,1-.09-.05l-.14-.2c-.11-.15-.21-.19-.5-.19l-.3,0a4.05,4.05,0,0,1,.21.61c.14.57.16.62.47.9s.34.31.34.41a.14.14,0,0,1-.12.15l-.11,0h-.07c-.1,0-.19.18-.19.37a1.22,1.22,0,0,0,.12.44.48.48,0,0,0,.12.21l.17.18a.23.23,0,0,1,.07.18c0,.08-.05.15-.1.15a.47.47,0,0,1-.16-.05l-.12,0q-.12,0-.12.15l0,.26.11.45a.74.74,0,0,0,.19.34.92.92,0,0,0,.26.21l.35.15a.2.2,0,0,1,.05.14.12.12,0,0,1-.11.13l-.18,0-.18,0c-.18,0-.19,0-.19.15a1.24,1.24,0,0,0,0,.27l.07.28c.08.3.17.46.28.46a.42.42,0,0,0,.13-.07,2.09,2.09,0,0,1,1.08-.37,3.32,3.32,0,0,1,.84.09.54.54,0,0,0,.17,0s.06,0,.06-.2l0-.31.07-.55,0-.4v-.23a.94.94,0,0,0-.14.13,1.06,1.06,0,0,1-.8.36c-.8,0-1.26-.9-1.26-2.48A16.65,16.65,0,0,1,41.93,54a3,3,0,0,0,.06-.49A1.92,1.92,0,0,0,41,52"/><path class="cls-7" d="M42.18,55.89l.15-.16.16-.14a.82.82,0,0,0,.24-.54.53.53,0,0,0-.06-.24c-.06-.14-.18-.25-.25-.25s-.12.14-.14.37l0,.26-.06.26v.44Z"/><path class="cls-7" d="M40.63,63.05a.81.81,0,0,1,.41.32.76.76,0,0,0,.7.35.64.64,0,0,0,.24,0l.23-.07.18,0c.08,0,.14-.06.14-.09s-.14-.15-.35-.29a3.09,3.09,0,0,0-.42-.25,1,1,0,0,0-.41-.11,1.36,1.36,0,0,0-.72.23"/><path class="cls-7" d="M43,68a1.16,1.16,0,0,1,1.23-1c.34,0,.54.07.54.19s-.15.21-.47.38l-.51.28a7.73,7.73,0,0,1-.77.38Z"/><path class="cls-7" d="M50.13,63.74a2.81,2.81,0,0,1,.45-.12h.32a.8.8,0,0,0,.21-.14l.24-.17c.35-.24.37-.26.37-.33s-.14-.15-.44-.15c-.55,0-.88.26-1.15.9"/><path class="cls-2" d="M44.84,53.07l.24.16a2.59,2.59,0,0,0,.35.19c.27.11.37.15.37.26a1,1,0,0,1,0,.2.94.94,0,0,0-.06.24c0,.24-.17.3-.26.3s-.24-.18-.44-.53a4.42,4.42,0,0,1-.28-.7v-.06c0-.05,0-.07.08-.07"/><path class="cls-2" d="M47.2,53.68l-.4.41c-.14.19-.14.35-.18.38a.14.14,0,0,1-.12.05h0a.19.19,0,0,1-.19-.18v-.3l0-.3h0a.18.18,0,0,1,.15-.2l.37-.1.39-.2.16-.06a.09.09,0,0,1,.09.1.51.51,0,0,1,0,.11Z"/><path class="cls-2" d="M45.43,54.87l.27.2a.41.41,0,0,0,.23.06,1,1,0,0,0,.41-.12l.23-.1a.43.43,0,0,1,.14,0c.14,0,.25.15.25.34a1.88,1.88,0,0,1-.46.91l-.19.4c-.15.22-.25.3-.38.3s-.31-.12-.62-.74a2.23,2.23,0,0,1-.31-.93c0-.18.09-.31.23-.31a.36.36,0,0,1,.2,0"/><path class="cls-7" d="M45.66,55.84l0,.33c0,.15.13.3.25.3s.28-.24.34-.61a1.74,1.74,0,0,0,0-.25c0-.12,0-.16-.21-.16h-.29c-.11,0-.15.09-.15.31"/><path class="cls-2" d="M25.94,47.91h1.71v3.52h2V48h5.08v3.48h2V48h1.71V38.87h-2l-.07-.11a1.09,1.09,0,0,0-1-.53,1,1,0,0,0-.92.64H33.17a1,1,0,0,0-1-.64,1.06,1.06,0,0,0-1,.64H29.7a1,1,0,0,0-1-.64,1,1,0,0,0-.93.64H25.94Z"/><rect class="cls-6" x="26.67" y="39.61" width="11.14" height="7.63"/><path class="cls-7" d="M27.83,41.36a.53.53,0,1,0,.53.53.53.53,0,0,0-.53-.53"/><path class="cls-2" d="M27.83,42.49a.6.6,0,1,1,.6-.6A.6.6,0,0,1,27.83,42.49Zm0-1.06a.46.46,0,0,0-.46.46.46.46,0,1,0,.92,0A.46.46,0,0,0,27.83,41.43Z"/><path class="cls-7" d="M36.57,41.36a.53.53,0,0,0,0,1.06.53.53,0,1,0,0-1.06"/><path class="cls-2" d="M36.57,42.49a.6.6,0,1,1,.61-.6A.6.6,0,0,1,36.57,42.49Zm0-1.06a.45.45,0,0,0-.45.46.46.46,0,1,0,.45-.46Z"/><path class="cls-7" d="M27.83,45.51a.53.53,0,0,0-.53.53.54.54,0,0,0,.55.53.52.52,0,0,0,.51-.53.53.53,0,0,0-.53-.53"/><path class="cls-2" d="M27.85,46.64a.61.61,0,0,1-.62-.6.6.6,0,1,1,1.2,0A.59.59,0,0,1,27.85,46.64Zm0-1.06a.47.47,0,0,0-.46.46.48.48,0,0,0,.48.46.45.45,0,0,0,.44-.46A.47.47,0,0,0,27.83,45.58Z"/><path class="cls-7" d="M36.57,45.51a.53.53,0,0,0,0,1.06.53.53,0,0,0,0-1.06"/><path class="cls-2" d="M36.57,46.64a.6.6,0,1,1,.61-.6A.6.6,0,0,1,36.57,46.64Zm0-1.06A.46.46,0,1,0,37,46,.46.46,0,0,0,36.57,45.58Z"/><path class="cls-7" d="M29.49,43.9a3.35,3.35,0,0,0,2.75,1.34,3.15,3.15,0,0,0,2.59-1.34,3.53,3.53,0,0,0-5.34,0"/><path class="cls-2" d="M30,43.9a3.3,3.3,0,0,1,2.14-.81,3.15,3.15,0,0,1,2.12.83,2.72,2.72,0,0,1-2.13.9A2.94,2.94,0,0,1,30,43.9"/><path class="cls-7" d="M30.92,43.73a2.22,2.22,0,0,0,1.21.38,2.19,2.19,0,0,0,1.28-.38,2.89,2.89,0,0,0-1.26-.31,2.58,2.58,0,0,0-1.23.31"/><rect class="cls-2" x="26.52" y="40" width="11.45" height="0.39"/><path class="cls-2" d="M38,40.42H26.49V40H38Zm-11.45-.05h11.4V40H26.54Z"/><path class="cls-7" d="M28.27,39.5v1.1a.46.46,0,0,0,.47.46.43.43,0,0,0,.49-.46V39.52c0-.41-.17-.67-.44-.67a.68.68,0,0,0-.22,0l-.12.07a.58.58,0,0,0-.11.15.76.76,0,0,0-.07.19"/><path class="cls-7" d="M31.72,40.4v.2a.45.45,0,0,0,.47.46.43.43,0,0,0,.48-.46V39.52c0-.41-.17-.67-.44-.67s-.51.25-.51.65"/><path class="cls-7" d="M35.05,39.5v1.1a.46.46,0,0,0,.48.46A.43.43,0,0,0,36,40.6V39.52c0-.41-.17-.67-.44-.67a.58.58,0,0,0-.21,0l-.13.07a.4.4,0,0,0-.1.15.58.58,0,0,0-.08.19"/><rect class="cls-7" x="28.03" y="48.74" width="1.04" height="1.34"/><rect class="cls-7" x="28.03" y="50.38" width="1.04" height="0.42"/><rect class="cls-7" x="35.13" y="48.74" width="1.04" height="1.34"/><rect class="cls-7" x="35.13" y="50.38" width="1.04" height="0.42"/><path class="cls-8" d="M476.92,75.41H456.66V41.14h4.06V71.78h16.2Z"/><path class="cls-8" d="M481.57,43.49a2.75,2.75,0,0,1,.76-1.93,2.54,2.54,0,0,1,1.93-.81,2.76,2.76,0,0,1,2,.81,2.57,2.57,0,0,1,.83,1.93,2.36,2.36,0,0,1-.83,1.86,2.92,2.92,0,0,1-2,.74,2.67,2.67,0,0,1-1.93-.74A2.5,2.5,0,0,1,481.57,43.49Zm.83,7.44h3.92V75.41H482.4Z"/><path class="cls-8" d="M510.4,75.41V61.46a12,12,0,0,0-1.1-5.76c-.73-1.28-2.08-1.93-4-1.93a6.48,6.48,0,0,0-4.28,1.4,7.31,7.31,0,0,0-2.37,3.5V75.41h-3.92V50.93h2.74l.73,3h.2a8.81,8.81,0,0,1,3.16-2.57,10.31,10.31,0,0,1,4.72-1,12,12,0,0,1,3.52.47,5.29,5.29,0,0,1,2.53,1.64,7.89,7.89,0,0,1,1.51,3.16,20,20,0,0,1,.52,5V75.41Z"/><path class="cls-8" d="M540.21,76.53q0,4.75-2.52,7t-7.47,2.25a24.85,24.85,0,0,1-4.72-.36,14.55,14.55,0,0,1-3.06-1l1-3.33A25.24,25.24,0,0,0,526,82a13.31,13.31,0,0,0,3.57.4,12.77,12.77,0,0,0,3.35-.37A4.35,4.35,0,0,0,535,80.77a4.78,4.78,0,0,0,1.08-2.21,14.93,14.93,0,0,0,.29-3.2V73h-.19a6.72,6.72,0,0,1-2.5,2.18,9,9,0,0,1-4,.75c-3.3,0-5.72-1-7.27-3.08s-2.33-5.25-2.33-9.59q0-6.27,3-9.52t8.81-3.26a22.52,22.52,0,0,1,4.77.44,28.14,28.14,0,0,1,3.55,1Zm-9.84-4a5.75,5.75,0,0,0,3.92-1.25,7.08,7.08,0,0,0,2-3.89V54.85a11.64,11.64,0,0,0-5-.93,6.52,6.52,0,0,0-5.24,2.25q-1.9,2.25-1.9,7A19.21,19.21,0,0,0,524.5,67a9.36,9.36,0,0,0,1.07,2.93,5.3,5.3,0,0,0,1.91,1.91A5.65,5.65,0,0,0,530.37,72.52Z"/><path class="cls-8" d="M551.27,50.93V64.88a22,22,0,0,0,.22,3.35,7,7,0,0,0,.76,2.4,3.6,3.6,0,0,0,1.47,1.45,5.09,5.09,0,0,0,2.35.49A6,6,0,0,0,560.25,71a8.32,8.32,0,0,0,1.42-1.69,10.39,10.39,0,0,0,1-2V50.93h3.91V68.45c0,1.18,0,2.4.12,3.65a25,25,0,0,0,.42,3.31h-2.69l-1-3.87h-.25a9.78,9.78,0,0,1-3,3.18A8.55,8.55,0,0,1,555.33,76a11.67,11.67,0,0,1-3.45-.46,5.32,5.32,0,0,1-2.49-1.64,7.84,7.84,0,0,1-1.52-3.16,20.57,20.57,0,0,1-.51-5V50.93Z"/><path class="cls-8" d="M573.74,52.74a14.1,14.1,0,0,1,4.33-1.66,24.14,24.14,0,0,1,5.16-.54,10.14,10.14,0,0,1,4.09.69A5.66,5.66,0,0,1,589.67,53a6.12,6.12,0,0,1,1.08,2.43,13.91,13.91,0,0,1,.27,2.64q0,2.94-.15,5.73t-.15,5.28c0,1.21,0,2.35.15,3.43a16.46,16.46,0,0,0,.54,3h-2.89l-1-3.42h-.24a8.29,8.29,0,0,1-1.11,1.34,7,7,0,0,1-1.59,1.18,9.64,9.64,0,0,1-2.15.85,10.33,10.33,0,0,1-2.79.35,8.63,8.63,0,0,1-2.91-.49,6.84,6.84,0,0,1-2.33-1.4,6.58,6.58,0,0,1-1.54-2.18,7.11,7.11,0,0,1-.56-2.88,6.76,6.76,0,0,1,.88-3.6,6.38,6.38,0,0,1,2.47-2.3,12.34,12.34,0,0,1,3.82-1.23,30.86,30.86,0,0,1,4.92-.36h1.34a9,9,0,0,1,1.35.1,26.29,26.29,0,0,0,.15-2.65A5.26,5.26,0,0,0,586.12,55c-.72-.71-2-1.07-3.92-1.07a14.25,14.25,0,0,0-1.78.12c-.64.09-1.29.2-2,.36a15.21,15.21,0,0,0-1.91.55,9.82,9.82,0,0,0-1.59.73Zm7,19.63a7.46,7.46,0,0,0,2.45-.37,7,7,0,0,0,1.86-.93,5.88,5.88,0,0,0,1.29-1.24,5.54,5.54,0,0,0,.76-1.33V64.44c-.46,0-.92-.06-1.39-.07l-1.4,0a26,26,0,0,0-3,.17,9.71,9.71,0,0,0-2.55.64A4.57,4.57,0,0,0,577,66.42a3.12,3.12,0,0,0-.66,2,3.6,3.6,0,0,0,1.23,2.82A4.51,4.51,0,0,0,580.69,72.37Z"/><path class="cls-8" d="M609.17,68.75a3,3,0,0,0-.88-2.3,7.31,7.31,0,0,0-2.18-1.4c-.86-.37-1.81-.73-2.83-1.07a13.47,13.47,0,0,1-2.84-1.33,7.2,7.2,0,0,1-2.18-2.08,5.88,5.88,0,0,1-.88-3.42q0-3.52,2-5.17A8.61,8.61,0,0,1,605,50.34a17.83,17.83,0,0,1,4.43.47,17.5,17.5,0,0,1,3.11,1.1l-.93,3.23a14.63,14.63,0,0,0-2.71-1,13.39,13.39,0,0,0-3.41-.42,5.38,5.38,0,0,0-3.15.74,2.92,2.92,0,0,0-1,2.54,2.41,2.41,0,0,0,.88,2,9.57,9.57,0,0,0,2.18,1.28c.87.37,1.81.74,2.84,1.1A12,12,0,0,1,610,62.83a8,8,0,0,1,2.18,2.22,6.37,6.37,0,0,1,.88,3.55,8.33,8.33,0,0,1-.51,2.94,6,6,0,0,1-1.6,2.35,7.61,7.61,0,0,1-2.66,1.54,11.39,11.39,0,0,1-3.75.56,18,18,0,0,1-4.74-.54,14.4,14.4,0,0,1-3.28-1.27l1.17-3.33A14.07,14.07,0,0,0,600.66,72a12.74,12.74,0,0,0,3.67.54,6.53,6.53,0,0,0,3.47-.84A3.17,3.17,0,0,0,609.17,68.75Z"/><path class="cls-8" d="M625.18,64.39h-2.25v11H619V41.14h3.92V62l2-.68,7.59-10.38h4.55l-7.49,9.84-2,1.62,2.45,2,8.17,11.07h-4.85Z"/><path class="cls-8" d="M642.46,43.49a2.7,2.7,0,0,1,.76-1.93,2.52,2.52,0,0,1,1.93-.81,2.79,2.79,0,0,1,2,.81,2.61,2.61,0,0,1,.83,1.93,2.39,2.39,0,0,1-.83,1.86,3,3,0,0,1-2,.74,2.66,2.66,0,0,1-1.93-.74A2.47,2.47,0,0,1,642.46,43.49Zm.83,7.44h3.91V75.41h-3.91Z"/><path class="cls-8" d="M659.93,69.38a4,4,0,0,0,.59,2.45,2,2,0,0,0,1.66.74,11.33,11.33,0,0,0,1.37-.1,8.16,8.16,0,0,0,1.67-.44l.44,3.08a8.56,8.56,0,0,1-2.18.64,14.58,14.58,0,0,1-2.42.24,5.27,5.27,0,0,1-3.63-1.25c-.94-.83-1.42-2.24-1.42-4.23V41.14h3.92Z"/><path class="cls-8" d="M674.22,69.38a4,4,0,0,0,.59,2.45,2,2,0,0,0,1.66.74,11.33,11.33,0,0,0,1.37-.1,8.16,8.16,0,0,0,1.67-.44l.44,3.08a8.44,8.44,0,0,1-2.18.64,14.58,14.58,0,0,1-2.42.24,5.23,5.23,0,0,1-3.62-1.25c-1-.83-1.42-2.24-1.42-4.23V41.14h3.91Z"/><g class="cls-9"><path class="cls-10" d="M673.41,46.21A104.57,104.57,0,0,1,685,40.61a73.61,73.61,0,0,1,12.4-3.22c4.28-.78,8.62-1.15,13-1.54s8.87-.75,13.31-1.14c2.43-.21,4.92-.34,7.33-.77,1.19-.22,2.35-.54,3.53-.81.57-.13,1.14-.27,1.72-.35s1.16.15,1.73,0v3.66c0,.46,0,.92,0,1.38,0,.1.06.34,0,.42s-.54.11-.64.13c-1.12.24-2.17.58-3.31.74s-2.39.29-3.58.44c-2.36.3-4.69.69-7,.92s-4.89.54-7.32.88c-4.79.68-9.58,1.44-14.35,2.24s-9.47,1.9-14.16,3.07c-2.58.64-5.14,1.36-7.65,2.21-2.16.72-4.31,1.56-6.43,2.35l-.06-5C676.28,44.74,673.43,47.89,673.41,46.21Z"/><path class="cls-11" d="M738,30.41c-7.5.95-15,1.64-22.55,2.28S700.33,33.83,692.87,35c-4.17.65-8.28,1.59-12.4,2.48,3.89-.72,7.79-1.41,11.7-2s7.78-.73,11.66-1,7.84-.42,11.75-.75c2-.17,4-.3,6-.43s3.86-.41,5.8-.65c2.21-.26,4.43-.44,6.64-.66,1.07-.11,2.14-.25,3.22-.34.23,0,.61,0,.74-.16s0-.79,0-1.09C734.57,30.84,738,30.7,738,30.41Z"/><path class="cls-12" d="M673.47,51.25a99.76,99.76,0,0,1,12-4c4.21-1.11,8.41-2.24,12.67-3.09,2.09-.41,4.2-.69,6.3-1.05s4.19-.78,6.3-1.08q6.5-.95,13-1.86,3.54-.49,7.09-.86A41.58,41.58,0,0,0,738,38.17v7.6c0,1.18.09,2.39,0,3.56,0,.4-.25.36-.61.37-.59,0-1.18.1-1.77.16-5.08.49-10.17,1-15.26,1.4l-15.13,1.25c-5.08.42-10.18.74-15.24,1.42-2.81.38-5.6.88-8.4,1.36s-5.46.9-8.17,1.48l.06-5.52C677.05,49.8,673.45,53.09,673.47,51.25Z"/><path class="cls-13" d="M673.41,59.4V58.21a10.61,10.61,0,0,1,0-1.26c0-.26.15-.26.39-.31s.63-.12,1-.2q2.63-.64,5.29-1.17c3.5-.69,7-1.2,10.6-1.56s7.2-.63,10.81-.91,7.2-.63,10.8-.92c3.94-.33,7.86-.94,11.82-.94-6.65.87-13.27,1.91-19.92,2.8S691,55.65,684.42,56.87c-3.7.68-7.36,1.59-11,2.53C673.41,58.94,676.16,58.69,673.41,59.4Z"/><path class="cls-14" d="M738,49.63c-4.63.4-9.26.82-13.88,1.33s-9.18,1.18-13.78,1.73-9.22.9-13.8,1.55-9.15,1.55-13.69,2.51c-1.22.26-2.44.5-3.63.85s-2.4.79-3.61,1.14a12.31,12.31,0,0,1-1.51.36c-.36.06-.71.08-.77.5a9.09,9.09,0,0,0,0,1.38c0,.6,0,1.21.08,1.81q6.9-1.34,13.82-2.59c4.53-.83,9.08-1.44,13.66-1.93q13.85-1.49,27.67-3.19c2.56-.31,5.12-.61,7.68-.87a11.45,11.45,0,0,0,1.55-.14c.35-.08.19-.47.17-.77-.05-1.22,0-2.45,0-3.67C734.3,50,738,49.85,738,49.63Z"/><path class="cls-15" d="M673.41,62.79c0,2.94.07,5.88,0,8.82,0,.17,0,.26.11.33s.47,0,.64,0c.68,0,1.36,0,2,0H718c6.16,0,12.32,0,18.49,0,.39,0,.78,0,1.17,0,.22,0,.29,0,.34-.17a2.45,2.45,0,0,0,0-.54c0-.31,0-.62,0-.93V54q-12.75,1.3-25.46,2.81c-8.44,1-16.94,1.75-25.32,3.14-4.62.77-9.2,1.79-13.77,2.8C673.41,64.25,673.54,62.76,673.41,62.79Z"/><path class="cls-16" d="M673.41,45c0-2.16,0-4.32,0-6.48,0-.23,0-.55.18-.67a1.25,1.25,0,0,1,.51,0c.3,0,.6-.06.89-.09l3.69-.38c2.39-.24,4.78-.5,7.16-.83s4.77-.76,7.16-1.15c4.76-.76,9.57-1,14.37-1.32s9.7-.54,14.55-.89a124.11,124.11,0,0,0,16.08-2,13.27,13.27,0,0,1,0,1.41c0,.39-.32.35-.68.37a11.08,11.08,0,0,0-1.82.26c-1.7.39-3.36.86-5.08,1.12-4.39.68-8.86.62-13.27,1-4.87.44-9.72,1.16-14.57,1.78l-7.32.93a19.62,19.62,0,0,0-3.4.65c-1.11.33-2.2.72-3.28,1.14-2.46.94-4.91,1.9-7.38,2.79A49.41,49.41,0,0,1,673.41,45C673.41,43.05,674,44.84,673.41,45Z"/><path class="cls-17" d="M673.41,46.21v-.58c0-.13-.07-.57,0-.67s.21-.07.27-.08l.94-.31a45.41,45.41,0,0,0,4.61-1.81c1.52-.69,3-1.42,4.59-2.08a24.33,24.33,0,0,1,3.75-1.17c1.17-.29,2.33-.56,3.5-.81-1.91.54-3.82,1.13-5.7,1.79a56.76,56.76,0,0,0-8.31,3.92C675.87,45.06,674.66,45.67,673.41,46.21Z"/></g></svg>